<svg width="25" height="22" viewBox="0 0 25 22" fill="none" xmlns="http://www.w3.org/2000/svg">
<path d="M9.375 9.42857C10.6182 9.42857 11.8105 8.93189 12.6896 8.04779C13.5686 7.16369 14.0625 5.96459 14.0625 4.71429C14.0625 3.46398 13.5686 2.26488 12.6896 1.38078C11.8105 0.496682 10.6182 0 9.375 0C8.1318 0 6.93951 0.496682 6.06044 1.38078C5.18136 2.26488 4.6875 3.46398 4.6875 4.71429C4.6875 5.96459 5.18136 7.16369 6.06044 8.04779C6.93951 8.93189 8.1318 9.42857 9.375 9.42857ZM9.375 12.5714C11.8614 12.5714 14.246 13.5648 16.0041 15.333C17.7623 17.1012 18.75 19.4994 18.75 22H0C0 19.4994 0.98772 17.1012 2.74587 15.333C4.50403 13.5648 6.8886 12.5714 9.375 12.5714ZM21.875 6.28571C21.875 5.86895 21.7104 5.46925 21.4174 5.17455C21.1243 4.87985 20.7269 4.71429 20.3125 4.71429C19.8981 4.71429 19.5007 4.87985 19.2076 5.17455C18.9146 5.46925 18.75 5.86895 18.75 6.28571V7.85714H17.1875C16.7731 7.85714 16.3757 8.0227 16.0826 8.3174C15.7896 8.6121 15.625 9.0118 15.625 9.42857C15.625 9.84534 15.7896 10.245 16.0826 10.5397C16.3757 10.8344 16.7731 11 17.1875 11H18.75V12.5714C18.75 12.9882 18.9146 13.3879 19.2076 13.6826C19.5007 13.9773 19.8981 14.1429 20.3125 14.1429C20.7269 14.1429 21.1243 13.9773 21.4174 13.6826C21.7104 13.3879 21.875 12.9882 21.875 12.5714V11H23.4375C23.8519 11 24.2493 10.8344 24.5424 10.5397C24.8354 10.245 25 9.84534 25 9.42857C25 9.0118 24.8354 8.6121 24.5424 8.3174C24.2493 8.0227 23.8519 7.85714 23.4375 7.85714H21.875V6.28571Z" fill="#1665D8"/>
</svg>
