<svg width="29" height="35" viewBox="0 0 29 35" fill="none" xmlns="http://www.w3.org/2000/svg">
<path d="M14.4999 15.7917C16.772 15.7917 21.3333 16.9363 21.3333 19.2084V19.4817C19.6762 21.3951 17.2332 22.6251 14.4999 22.6251C11.7666 22.6251 9.32367 21.3951 7.66658 19.4817V19.2084C7.66658 16.9363 12.2278 15.7917 14.4999 15.7917ZM14.4999 14.0834C12.6208 14.0834 11.0833 12.5459 11.0833 10.6667C11.0833 8.78758 12.6208 7.25008 14.4999 7.25008C16.3791 7.25008 17.9166 8.78758 17.9166 10.6667C17.9166 12.5459 16.3791 14.0834 14.4999 14.0834ZM24.7499 14.4251C24.7499 8.22383 20.2228 3.83341 14.4999 3.83341C8.777 3.83341 4.24992 8.22383 4.24992 14.4251C4.24992 18.4226 7.58117 23.7184 14.4999 30.0392C21.4187 23.7184 24.7499 18.4226 24.7499 14.4251ZM14.4999 0.416748C21.6749 0.416748 28.1666 5.91758 28.1666 14.4251C28.1666 20.0967 23.6053 26.8105 14.4999 34.5834C5.3945 26.8105 0.833252 20.0967 0.833252 14.4251C0.833252 5.91758 7.32492 0.416748 14.4999 0.416748Z" fill="black"/>
</svg>
