<!DOCTYPE svg PUBLIC "-//W3C//DTD SVG 20010904//EN" "http://www.w3.org/TR/2001/REC-SVG-20010904/DTD/svg10.dtd">
<svg version="1.0" xmlns="http://www.w3.org/2000/svg" width="70px" height="70px" viewBox="0 0 70 70" preserveAspectRatio="xMidYMid meet">
 <g id="layer101" fill="#f0c8b2" stroke="none">
  <path d="M32.0833 68.81 c-5.7867 -0.3733 -11.55 -2.38 -16.8 -5.8333 -2.45 -1.61 -7.35 -6.51 -8.96 -8.96 -1.5633 -2.38 -3.5467 -6.4633 -4.34 -8.8667 -2.17 -6.8133 -2.17 -14.42 0 -21.2333 0.7933 -2.4033 2.7767 -6.4867 4.34 -8.8667 1.61 -2.45 6.51 -7.35 8.96 -8.96 6.0667 -3.99 12.46 -5.95 19.4833 -5.95 5.6233 0 10.0333 1.0267 15.05 3.4767 3.92 1.9133 5.9733 3.4067 9.2167 6.65 3.2433 3.2433 4.7367 5.2967 6.65 9.2167 2.45 4.9933 3.4767 9.4267 3.4533 14.9333 0 12.5067 -6.3233 23.4733 -17.15 29.89 -5.81 3.43 -12.6467 4.97 -19.9033 4.5033z m9.31 -2.66 c6.23 -1.4 11.7367 -4.4333 16.1467 -8.8433 4.3633 -4.3633 7.0933 -9.2633 8.68 -15.54 0.5833 -2.2633 0.63 -2.8233 0.63 -7.2333 0 -4.41 -0.0467 -4.97 -0.63 -7.2333 -1.5867 -6.2767 -4.3167 -11.1767 -8.68 -15.54 -4.8067 -4.8067 -10.9433 -7.98 -17.5933 -9.0767 -2.9633 -0.49 -9.2167 -0.3733 -11.9467 0.2333 -5.9033 1.3067 -11.2467 4.1767 -15.5633 8.3533 -4.5967 4.4567 -7.5367 9.5433 -9.1 15.7267 -0.6067 2.3567 -0.6533 2.8467 -0.6533 7.42 0 4.5267 0.0467 5.0867 0.63 7.35 0.77 3.1033 1.5167 5.04 2.8933 7.7467 2.94 5.67 8.0267 10.71 13.8367 13.6967 2.7067 1.3767 6.3467 2.6367 8.89 3.0567 0.9567 0.14 1.9133 0.3033 2.1 0.35 0.9567 0.2333 8.89 -0.1167 10.36 -0.4667z"/>
  <path d="M16.17 54.9033 l-0.77 -0.0933 0 -9.66 0 -9.66 0.8867 -0.1633 c1.3767 -0.28 5.9033 -0.21 7.0233 0.1167 3.1267 0.8867 4.5267 3.5467 3.3133 6.23 -0.42 0.9333 -1.7733 2.1933 -2.31 2.1933 -0.56 0 -0.2567 0.6533 0.4433 0.9567 4.2 1.7267 3.9667 7.8633 -0.3733 9.4967 -1.6333 0.63 -5.6233 0.91 -8.2133 0.5833z m6.8133 -2.0533 c1.0033 -0.42 1.9833 -1.5633 2.2167 -2.5667 0.6767 -2.9633 -1.9367 -5.1567 -5.88 -4.97 l-1.47 0.07 0 3.85 0 3.8267 0.5833 0.1867 c0.7933 0.2333 3.6633 -0.0233 4.55 -0.3967z m-0.35 -9.73 c1.4467 -0.7467 2.17 -1.8667 2.03 -3.15 -0.2333 -2.1933 -1.6333 -3.08 -4.8767 -3.1033 l-2.0533 0 0 3.22 c0 1.7733 0.07 3.3133 0.1633 3.3833 0.07 0.0933 0.9567 0.1633 1.9367 0.1633 1.3767 0 2.0067 -0.1167 2.8 -0.5133z"/>
  <path d="M43.0033 54.6233 c-3.01 -1.0267 -4.9467 -3.78 -5.4833 -7.77 -0.4667 -3.6867 0.6767 -7.3267 3.01 -9.5433 1.9133 -1.82 2.94 -2.1933 6.02 -2.1933 2.3333 0 2.6833 0.07 3.8967 0.6533 2.66 1.3067 4.3167 3.8033 4.8533 7.28 0.84 5.4133 -1.8667 10.5467 -6.16 11.69 -1.68 0.4433 -4.6667 0.3967 -6.1367 -0.1167z m6.16 -1.9133 c4.7133 -2.4267 5.0633 -11.4333 0.6067 -14.8167 -2.66 -2.03 -6.3467 -1.3533 -8.2367 1.5167 -1.0967 1.6567 -1.5167 3.29 -1.4933 5.9733 0.0233 2.0767 0.1167 2.4967 0.7233 3.85 1.7033 3.71 5.1567 5.1333 8.4 3.4767z"/>
  <path d="M31.5 45.0333 c0 -8.5633 0.0467 -9.8 0.35 -9.8 0.28 0 0.35 -0.3267 0.35 -1.5633 0 -2.2633 -0.14 -2.3567 -1.7267 -1.61 -1.82 0.8633 -3.3367 1.0267 -4.7367 0.49 -2.3567 -0.91 -4.97 -4.55 -7.0933 -9.9167 -0.5367 -1.3533 -1.0733 -2.66 -1.1667 -2.9167 -0.3967 -0.8867 -1.8433 -5.3433 -1.8433 -5.6467 0 -0.3967 1.3067 -0.3967 3.7567 0.0467 6.6267 1.1667 13.1367 5.0867 15.2833 9.24 1.19 2.31 0.77 4.6433 -1.19 6.6267 l-0.8167 0.8167 0.3033 1.68 0.3033 1.68 0.56 -0.8167 c0.3033 -0.4433 0.8167 -1.0733 1.1433 -1.4467 0.5133 -0.56 0.5833 -0.84 0.5833 -2.45 0.0233 -1.4933 0.1167 -1.9133 0.56 -2.5667 2.03 -2.8467 9.17 -3.1033 14.77 -0.5367 2.73 1.2367 2.73 1.0967 0.0233 3.1733 -2.73 2.1 -4.3167 3.08 -7 4.3867 -1.68 0.8167 -2.17 0.9333 -3.6167 0.9567 -1.9133 0.0233 -2.7533 -0.35 -3.3833 -1.54 -0.2333 -0.3967 -0.5833 -0.9333 -0.7933 -1.2133 -0.3967 -0.49 -0.3967 -0.49 -0.77 -0.0233 -0.21 0.2567 -0.63 0.8633 -0.9567 1.3767 l-0.6067 0.8867 0.0467 10.2433 0.0233 10.2433 -1.19 0 -1.1667 0 0 -9.8z m6.09 -14.21 c1.2133 -0.5367 4.2467 -1.3067 5.9967 -1.54 0.6533 -0.0933 1.1433 -0.2567 1.0733 -0.3733 -0.2333 -0.3967 -3.2667 -0.2333 -4.9 0.28 -1.7267 0.5133 -3.5933 1.4933 -3.5933 1.8433 0 0.3267 0.28 0.28 1.4233 -0.21z m-5.39 -0.56 c0 -0.6533 -1.8433 -3.3833 -3.5 -5.1333 -1.5167 -1.61 -4.5967 -4.0367 -4.83 -3.8033 -0.0467 0.0467 1.3067 1.4933 3.01 3.1967 2.0533 2.0533 3.3833 3.6167 3.92 4.5733 0.7467 1.3533 1.4 1.89 1.4 1.1667z"/>
</g>

</svg>