<!DOCTYPE svg PUBLIC "-//W3C//DTD SVG 20010904//EN" "http://www.w3.org/TR/2001/REC-SVG-20010904/DTD/svg10.dtd">
<svg version="1.0" xmlns="http://www.w3.org/2000/svg" width="70px" height="70px" viewBox="0 0 70 70" preserveAspectRatio="xMidYMid meet">
 <g id="layer101" fill="#f0c8b2" stroke="none">
  <path d="M32.0833 68.81 c-5.7867 -0.3733 -11.55 -2.38 -16.8 -5.8333 -2.45 -1.61 -7.35 -6.51 -8.96 -8.96 -1.5633 -2.38 -3.5467 -6.4633 -4.34 -8.8667 -2.17 -6.8133 -2.17 -14.42 0 -21.2333 0.7933 -2.4033 2.7767 -6.4867 4.34 -8.8667 1.61 -2.45 6.51 -7.35 8.96 -8.96 6.0667 -3.99 12.46 -5.95 19.4833 -5.95 5.6233 0 10.0333 1.0267 15.05 3.4767 3.92 1.9133 5.9733 3.4067 9.2167 6.65 3.2433 3.2433 4.7367 5.2967 6.65 9.2167 2.45 4.9933 3.4767 9.4267 3.4533 14.9333 0 12.5067 -6.3233 23.4733 -17.15 29.89 -5.81 3.43 -12.6467 4.97 -19.9033 4.5033z m9.31 -2.66 c6.23 -1.4 11.7367 -4.4333 16.1467 -8.8433 4.3633 -4.3633 7.0933 -9.2633 8.68 -15.54 0.5833 -2.2633 0.63 -2.8233 0.63 -7.2333 0 -4.41 -0.0467 -4.97 -0.63 -7.2333 -1.5867 -6.2767 -4.3167 -11.1767 -8.68 -15.54 -4.8067 -4.8067 -10.9433 -7.98 -17.5933 -9.0767 -2.9633 -0.49 -9.2167 -0.3733 -11.9467 0.2333 -5.9033 1.3067 -11.2467 4.1767 -15.5633 8.3533 -4.5967 4.4567 -7.5367 9.5433 -9.1 15.7267 -0.6067 2.3567 -0.6533 2.8467 -0.6533 7.42 0 4.5267 0.0467 5.0867 0.63 7.35 0.77 3.1033 1.5167 5.04 2.8933 7.7467 2.94 5.67 8.0267 10.71 13.8367 13.6967 2.7067 1.3767 6.3467 2.6367 8.89 3.0567 0.9567 0.14 1.9133 0.3033 2.1 0.35 0.9567 0.2333 8.89 -0.1167 10.36 -0.4667z"/>
  <path d="M31.6167 55.51 c-0.5133 -0.14 -2.45 -0.49 -4.3167 -0.8167 -1.8667 -0.3033 -4.27 -0.7233 -5.3667 -0.9333 -3.92 -0.7233 -6.6733 -1.2367 -7.5133 -1.3767 l-0.8867 -0.14 0 -6.7433 c0 -6.3 0.0233 -6.7667 0.42 -6.7667 0.21 0 1.61 0.21 3.08 0.4667 1.47 0.28 4.48 0.7933 6.65 1.19 6.4167 1.12 5.53 1.2133 7.77 -0.84 l1.9133 -1.7967 0 9.0067 c0 10.1033 0.1867 9.1933 -1.75 8.75z"/>
  <path d="M34.7667 46.76 l0 -9.0067 1.9833 1.7967 c1.89 1.7267 2.03 1.7967 2.87 1.6567 0.7933 -0.1167 5.0167 -0.8633 11.48 -2.0067 1.47 -0.2567 2.87 -0.4667 3.1033 -0.4667 0.3733 0 0.3967 0.4667 0.3967 6.7667 0 3.7333 -0.0933 6.7667 -0.21 6.7667 -0.21 0 -2.31 0.3733 -6.6733 1.1667 -1.4 0.2567 -4.3867 0.7933 -6.6033 1.1667 -2.2167 0.3733 -4.4567 0.7933 -5.0167 0.9333 -0.5367 0.1167 -1.05 0.2333 -1.1433 0.2333 -0.1167 0 -0.1867 -4.06 -0.1867 -9.0067z"/>
  <path d="M27.5333 39.97 c-0.3267 -0.0467 -1.6333 -0.3033 -2.9167 -0.5367 -1.2833 -0.2567 -3.5467 -0.6533 -5.0167 -0.91 -3.5933 -0.6067 -9.0767 -1.61 -9.8 -1.7967 -0.56 -0.14 -0.4667 -0.2333 1.3767 -1.9367 l1.9367 -1.7967 3.08 0.5367 c1.68 0.28 3.9433 0.7 5.04 0.8867 2.94 0.5367 9.8 1.7267 10.71 1.89 l0.7933 0.1167 -1.8433 1.8667 c-1.82 1.8433 -1.9833 1.9133 -3.36 1.68z"/>
  <path d="M37.24 38.3833 c-1.0267 -0.9567 -1.82 -1.7733 -1.75 -1.8433 0.0467 -0.0467 2.24 -0.49 4.8767 -0.9567 2.6367 -0.4667 5.6233 -1.0033 6.65 -1.19 1.0267 -0.1867 3.2433 -0.5833 4.9467 -0.8633 l3.0567 -0.5367 1.8433 1.68 c1.0033 0.91 1.75 1.75 1.6333 1.8667 -0.1633 0.1633 -2.7767 0.6767 -9.4967 1.8433 -1.8667 0.3267 -4.4333 0.7933 -5.7167 1.05 -4.4567 0.84 -3.9433 0.9333 -6.0433 -1.05z"/>
  <path d="M31.7333 35.21 c-1.12 -0.2333 -8.82 -1.61 -12.6467 -2.24 -1.26 -0.2333 -2.2867 -0.49 -2.2867 -0.5833 0 -0.0933 0.0933 -0.1867 0.1867 -0.1867 0.0933 0 1.6567 -0.2567 3.4533 -0.5833 1.7733 -0.3267 3.4067 -0.5833 3.5933 -0.5833 0.1867 0 0.6533 0.4433 1.0267 0.9567 0.4667 0.6767 0.7933 0.91 1.1667 0.8633 0.5133 -0.07 0.5367 -0.2333 0.2567 -1.5167 -0.14 -0.6533 -0.1167 -0.77 0.3733 -0.8633 1.3533 -0.28 5.95 -1.0733 6.2067 -1.0733 0.21 0 0.3033 0.7233 0.35 2.52 0.07 2.4967 0.07 2.4967 0.6533 2.4967 0.5833 0 0.5833 0 0.6533 -2.4967 0.0467 -1.82 0.14 -2.52 0.35 -2.52 0.28 0 5.11 0.84 6.16 1.05 0.4433 0.1167 0.49 0.1867 0.2567 0.9567 -0.1167 0.4667 -0.1633 0.98 -0.0933 1.1667 0.2333 0.6067 1.0033 0.35 1.5167 -0.49 0.2567 -0.4667 0.63 -0.8867 0.84 -0.9567 0.3033 -0.1167 7.56 1.0033 7.7933 1.2133 0.14 0.1167 -0.42 0.2333 -9.1233 1.7267 -2.1467 0.3733 -4.76 0.84 -5.81 1.05 -2.0767 0.3967 -3.29 0.42 -4.8767 0.0933z"/>
  <path d="M44.94 27.09 c1.3067 -2.45 3.5467 -5.1567 5.32 -6.4633 0.84 -0.63 1.6333 -1.1433 1.75 -1.1433 0.21 0 2.2167 1.75 2.0767 1.82 -0.98 0.5133 -6.02 4.13 -7.7467 5.5533 l-2.31 1.9133 0.91 -1.68z"/>
  <path d="M21.4667 26.7867 c-1.0967 -0.8867 -3.2667 -2.4967 -4.8533 -3.5467 l-2.87 -1.96 1.12 -0.9333 c1.0967 -0.9567 1.0967 -0.9567 1.7733 -0.56 1.1433 0.6767 3.43 2.8467 4.62 4.4333 1.0733 1.4467 2.4733 3.9433 2.2867 4.1067 -0.0467 0.0467 -0.98 -0.6533 -2.0767 -1.54z"/>
  <path d="M8.9367 27.8367 c-0.3733 -0.14 -0.3967 -0.8167 -0.0233 -1.19 0.3733 -0.3733 1.6333 -0.35 2.1467 0.0233 0.35 0.2567 0.3967 0.3967 0.1633 0.8167 -0.21 0.3967 -0.4667 0.5133 -1.1433 0.49 -0.4667 0 -1.0033 -0.07 -1.1433 -0.14z"/>
  <path d="M59.08 27.72 c-0.6767 -0.6767 0.1167 -1.4467 1.4 -1.3067 0.8867 0.0933 1.3533 0.7 0.91 1.2133 -0.3733 0.4433 -1.9133 0.49 -2.31 0.0933z"/>
  <path d="M27.2533 21.8633 c-1.0033 -1.5633 -3.01 -4.2233 -4.1067 -5.39 -1.0733 -1.1433 -1.0733 -1.1667 0.5367 -1.4233 0.5133 -0.07 1.1667 -0.21 1.47 -0.28 0.4433 -0.0933 0.6067 0.0467 1.0967 1.12 0.7233 1.5867 1.7967 5.6467 1.7033 6.4167 -0.07 0.5367 -0.1167 0.49 -0.7 -0.4433z"/>
  <path d="M40.0633 21.9333 c0.14 -1.4933 0.9333 -4.34 1.6333 -5.88 0.6067 -1.3533 0.6533 -1.4 1.33 -1.26 0.3967 0.0933 1.1667 0.21 1.7033 0.3033 l1.0033 0.14 -1.4933 1.7733 c-0.8167 0.98 -2.0767 2.66 -2.8233 3.7567 -0.7233 1.0967 -1.3533 2.0067 -1.4 2.0533 -0.0233 0.0233 0 -0.3733 0.0467 -0.8867z"/>
  <path d="M33.1333 17.64 c0 -0.1867 0.1867 -0.4667 0.42 -0.5833 0.6067 -0.3267 1.4933 -0.0467 1.4 0.42 -0.0933 0.5133 -1.82 0.6767 -1.82 0.1633z"/>
</g>

</svg>