<!DOCTYPE svg PUBLIC "-//W3C//DTD SVG 20010904//EN" "http://www.w3.org/TR/2001/REC-SVG-20010904/DTD/svg10.dtd">
<svg version="1.0" xmlns="http://www.w3.org/2000/svg" width="70px" height="70px" viewBox="0 0 70 70" preserveAspectRatio="xMidYMid meet">
 <g id="layer101" fill="#f0c8b2" stroke="none">
  <path d="M32.0833 68.81 c-5.7867 -0.3733 -11.55 -2.38 -16.8 -5.8333 -2.45 -1.61 -7.35 -6.51 -8.96 -8.96 -1.5633 -2.38 -3.5467 -6.4633 -4.34 -8.8667 -2.17 -6.8133 -2.17 -14.42 0 -21.2333 0.7933 -2.4033 2.7767 -6.4867 4.34 -8.8667 1.61 -2.45 6.51 -7.35 8.96 -8.96 6.0667 -3.99 12.46 -5.95 19.4833 -5.95 5.6233 0 10.0333 1.0267 15.05 3.4767 3.92 1.9133 5.9733 3.4067 9.2167 6.65 3.2433 3.2433 4.7367 5.2967 6.65 9.2167 2.45 4.9933 3.4767 9.4267 3.4533 14.9333 0 12.5067 -6.3233 23.4733 -17.15 29.89 -5.81 3.43 -12.6467 4.97 -19.9033 4.5033z m9.31 -2.66 c6.23 -1.4 11.7367 -4.4333 16.1467 -8.8433 4.3633 -4.3633 7.0933 -9.2633 8.68 -15.54 0.5833 -2.2633 0.63 -2.8233 0.63 -7.2333 0 -4.41 -0.0467 -4.97 -0.63 -7.2333 -1.5867 -6.2767 -4.3167 -11.1767 -8.68 -15.54 -4.8067 -4.8067 -10.9433 -7.98 -17.5933 -9.0767 -2.9633 -0.49 -9.2167 -0.3733 -11.9467 0.2333 -5.9033 1.3067 -11.2467 4.1767 -15.5633 8.3533 -4.5967 4.4567 -7.5367 9.5433 -9.1 15.7267 -0.6067 2.3567 -0.6533 2.8467 -0.6533 7.42 0 4.5267 0.0467 5.0867 0.63 7.35 0.77 3.1033 1.5167 5.04 2.8933 7.7467 2.94 5.67 8.0267 10.71 13.8367 13.6967 2.7067 1.3767 6.3467 2.6367 8.89 3.0567 0.9567 0.14 1.9133 0.3033 2.1 0.35 0.9567 0.2333 8.89 -0.1167 10.36 -0.4667z"/>
  <path d="M18.2933 58.8467 c-1.33 -0.63 -2.6133 -1.9833 -3.3133 -3.5233 -0.7933 -1.7733 -0.84 -4.7367 -0.0933 -6.37 0.77 -1.7267 2.0533 -2.9633 3.9433 -3.85 0.9333 -0.42 1.7967 -0.98 1.9367 -1.2133 0.1167 -0.2567 0.3267 -1.8433 0.4433 -3.57 0.14 -1.7033 0.3967 -3.5467 0.5833 -4.1067 0.21 -0.56 1.26 -2.4967 2.38 -4.3167 1.12 -1.82 3.6167 -5.9267 5.5533 -9.1467 4.0133 -6.6267 5.1567 -8.0033 8.5167 -10.2667 4.13 -2.8 4.1067 -2.7067 -1.6333 9.1 -1.05 2.1933 -2.0533 4.2933 -2.2167 4.6667 -0.28 0.7467 -3.0333 6.6267 -4.83 10.3833 -0.5833 1.2133 -1.75 3.6633 -2.59 5.46 -0.84 1.7733 -1.54 3.5467 -1.54 3.92 0 0.3733 0.35 1.33 0.7467 2.1233 0.7 1.3067 0.77 1.6333 0.77 3.5467 0 1.7967 -0.0933 2.2867 -0.6067 3.3833 -1.1667 2.45 -3.22 3.92 -5.7867 4.1067 -0.9567 0.0933 -1.5633 0 -2.2633 -0.3267z m3.6867 -2.4267 c2.52 -0.7467 3.6633 -4.2467 2.31 -6.9067 -0.5367 -1.0733 -1.0733 -1.5633 -2.1933 -2.03 -2.6833 -1.12 -5.4833 0.7467 -5.7167 3.85 -0.1167 1.6567 0.2333 2.8 1.19 3.8967 1.2133 1.4 2.5667 1.75 4.41 1.19z m4.48 -16.7767 c0.7 -0.84 0.8167 -2.3567 0.2567 -3.1733 -0.56 -0.7933 -1.7967 -1.0967 -2.66 -0.6533 -0.9567 0.49 -1.26 1.1433 -1.12 2.4267 0.2333 2.0533 2.2867 2.87 3.5233 1.4z"/>
  <path d="M33.67 55.8367 c-0.2567 -0.2333 -0.63 -0.8867 -0.84 -1.47 -0.21 -0.5833 -1.1667 -3.3367 -2.1233 -6.1133 l-1.75 -5.0633 0.5833 -1.3067 c0.3267 -0.7233 0.6533 -1.2833 0.7 -1.2133 0.07 0.07 2.2167 6.0433 4.0367 11.2467 0.2333 0.6533 0.5133 1.12 0.63 1.0967 0.1167 -0.0467 0.3967 -0.5833 0.63 -1.1667 0.77 -1.9133 1.0967 -2.0533 2.9633 -1.0967 0.63 0.3267 1.26 0.5833 1.3767 0.5833 0.1167 0 0.4433 -0.6067 0.7233 -1.33 0.28 -0.7467 0.6067 -1.47 0.7467 -1.6333 0.3733 -0.4433 1.0967 -0.3733 2.4733 0.28 0.7 0.3267 1.2833 0.5833 1.33 0.5833 0.0467 0 0.3733 -0.7233 0.7233 -1.6333 0.7933 -2.0067 1.0967 -2.1467 2.9633 -1.26 0.7933 0.3733 1.4467 0.5833 1.4933 0.4433 0.0467 -0.1167 0.3733 -0.91 0.7233 -1.75 0.7467 -1.7733 1.26 -1.9833 2.8233 -1.19 1.7033 0.8867 2.1933 2.7067 -4.41 -16.0767 -1.7033 -4.8067 -3.1733 -9.0767 -3.29 -9.4967 -0.1167 -0.3967 -0.35 -0.77 -0.5133 -0.84 -0.14 -0.0467 -1.4467 0.3967 -2.8467 1.0033 -1.4 0.63 -2.59 1.0967 -2.6367 1.0733 -0.0233 -0.0467 0.21 -0.6067 0.5367 -1.26 0.3267 -0.63 0.5833 -1.26 0.5833 -1.3767 0 -0.1167 0.9567 -0.6067 2.1 -1.0733 1.9833 -0.8167 2.1467 -0.84 2.8933 -0.5367 0.4433 0.1867 0.9567 0.5833 1.1667 0.8867 0.6767 1.0267 9.94 28.14 9.94 29.0733 0 0.3733 -0.21 0.9567 -0.4667 1.2833 -0.7 0.8867 -1.4467 0.9567 -2.8467 0.2567 -0.7467 -0.3733 -1.26 -0.5133 -1.3067 -0.3733 -0.0467 0.14 -0.35 0.8167 -0.7 1.4933 -0.7933 1.54 -1.4933 1.7967 -3.0567 1.0733 -0.5833 -0.2567 -1.1433 -0.5133 -1.2133 -0.56 -0.0933 -0.0467 -0.3967 0.5367 -0.6767 1.33 -0.3033 0.77 -0.7233 1.4933 -0.9567 1.61 -0.6067 0.3267 -1.6567 0.28 -2.45 -0.0933 -1.1667 -0.5833 -1.26 -0.5367 -1.7967 0.7933 -0.3733 0.91 -0.7 1.3767 -1.2133 1.61 -0.7 0.3267 -1.05 0.28 -2.9633 -0.5367 -0.3033 -0.14 -0.49 0.07 -0.91 1.0267 -0.8167 1.9133 -2.1467 2.6133 -3.1733 1.7033z"/>
  <path d="M11.55 37.8233 c-1.7733 -0.4433 -3.29 -1.75 -4.27 -3.64 -0.56 -1.0267 -0.63 -1.4233 -0.63 -3.3833 0 -2.7767 0.56 -4.1767 2.2633 -5.7167 1.9833 -1.7733 4.69 -2.2167 6.8833 -1.0733 1.9133 0.9567 3.8033 3.8967 3.8033 5.88 0 0.7 0.8867 1.8667 1.5867 2.1 0.21 0.07 0.0467 0.56 -0.5133 1.61 -0.4433 0.84 -0.9333 2.0067 -1.0967 2.6367 -0.3267 1.3533 -0.56 1.5167 -1.2367 0.8867 -0.6533 -0.63 -0.98 -0.6067 -2.4967 0.07 -1.4 0.6533 -3.22 0.91 -4.2933 0.63z m3.8967 -3.1733 c1.5633 -1.05 2.38 -3.4533 1.82 -5.4833 -0.35 -1.2833 -1.8433 -2.8233 -3.15 -3.2433 -2.52 -0.7933 -5.25 1.5167 -5.25 4.4567 0 3.9667 3.5467 6.2767 6.58 4.27z"/>
  <path d="M35.9567 30.9867 c-0.14 -0.3967 -0.2333 -0.77 -0.1867 -0.8167 0.1167 -0.0933 8.4933 -3.7567 9.03 -3.92 0.3033 -0.0933 0.49 0.0467 0.6767 0.6067 0.3033 0.91 0.2333 1.0267 -0.8633 1.4 -0.4667 0.1633 -2.4733 1.0033 -4.4333 1.89 -1.96 0.8633 -3.64 1.5867 -3.7567 1.5867 -0.1167 0 -0.3267 -0.3267 -0.4667 -0.7467z"/>
  <path d="M23.4733 27.3933 c-0.2567 -0.7 -0.14 -1.8433 0.3033 -2.5433 0.3967 -0.7 2.2167 -1.7267 2.4967 -1.4467 0.14 0.14 -2.1467 4.0367 -2.4967 4.2467 -0.0933 0.07 -0.2333 -0.0467 -0.3033 -0.2567z"/>
  <path d="M40.4367 23.6833 l-0.2567 -0.7933 1.2367 -0.5833 c2.0767 -0.9333 2.1933 -0.9567 2.45 -0.2333 0.14 0.35 0.21 0.7233 0.1867 0.84 -0.07 0.1633 -3.08 1.5867 -3.36 1.5867 0 0 -0.1167 -0.3733 -0.2567 -0.8167z"/>
</g>

</svg>