<svg width="35" height="35" viewBox="0 0 35 35" fill="none" xmlns="http://www.w3.org/2000/svg">
<path d="M12.3751 17.0729C11.1963 17.0729 10.2397 18.0295 10.2397 19.2083C10.2397 20.387 11.1963 21.3437 12.3751 21.3437C13.5538 21.3437 14.5105 20.387 14.5105 19.2083C14.5105 18.0295 13.5538 17.0729 12.3751 17.0729ZM22.6251 17.0729C21.4463 17.0729 20.4897 18.0295 20.4897 19.2083C20.4897 20.387 21.4463 21.3437 22.6251 21.3437C23.8038 21.3437 24.7605 20.387 24.7605 19.2083C24.7605 18.0295 23.8038 17.0729 22.6251 17.0729ZM17.5001 0.416626C8.07008 0.416626 0.416748 8.06996 0.416748 17.5C0.416748 26.93 8.07008 34.5833 17.5001 34.5833C26.9301 34.5833 34.5834 26.93 34.5834 17.5C34.5834 8.06996 26.9301 0.416626 17.5001 0.416626ZM17.5001 31.1666C9.96633 31.1666 3.83341 25.0337 3.83341 17.5C3.83341 17.0045 3.86758 16.5091 3.91883 16.0308C7.9505 14.237 11.1451 10.94 12.8192 6.85704C15.9113 11.2304 21.0022 14.0833 26.7592 14.0833C28.0917 14.0833 29.373 13.9295 30.603 13.6391C30.9617 14.852 31.1667 16.1504 31.1667 17.5C31.1667 25.0337 25.0338 31.1666 17.5001 31.1666Z" fill="#514245"/>
</svg>
