<svg width="28" height="37" viewBox="0 0 28 37" fill="none" xmlns="http://www.w3.org/2000/svg">
<path d="M24.5 12.3613H22.75V8.85105C22.75 4.00691 18.83 0.0754395 14 0.0754395C9.17 0.0754395 5.25 4.00691 5.25 8.85105V12.3613H3.5C1.575 12.3613 0 13.9409 0 15.8715V33.4228C0 35.3534 1.575 36.933 3.5 36.933H24.5C26.425 36.933 28 35.3534 28 33.4228V15.8715C28 13.9409 26.425 12.3613 24.5 12.3613ZM14 28.1574C12.075 28.1574 10.5 26.5778 10.5 24.6471C10.5 22.7165 12.075 21.1369 14 21.1369C15.925 21.1369 17.5 22.7165 17.5 24.6471C17.5 26.5778 15.925 28.1574 14 28.1574ZM19.425 12.3613H8.575V8.85105C8.575 5.84979 11.0075 3.41017 14 3.41017C16.9925 3.41017 19.425 5.84979 19.425 8.85105V12.3613Z" fill="black" fill-opacity="0.7"/>
</svg>
