<svg width="22" height="31" viewBox="0 0 22 31" fill="none" xmlns="http://www.w3.org/2000/svg">
<path d="M3.98637 11.8432C5.002 16.2593 7.41583 20.2597 10.8331 23.2456L14.6396 20.9599C15.1068 20.6794 15.6918 20.693 16.1349 20.9802C17.5578 21.8796 19.164 22.5748 20.8809 23.0034C21.6425 23.1935 22.11 23.9721 21.9199 24.7337L20.7135 29.5659C20.5234 30.3275 19.7448 30.795 18.9833 30.6049C5.98181 27.3592 -1.92462 14.1919 1.32109 1.19039C1.5112 0.42886 2.28982 -0.0386687 3.05136 0.151442L7.89749 1.36124C8.65902 1.55135 9.12655 2.32997 8.93644 3.0915C8.50437 4.82226 8.3665 6.55292 8.49167 8.23158C8.523 8.75421 8.27742 9.26656 7.79295 9.55747L3.98637 11.8432Z" fill="black"/>
</svg>
