<svg width="46" height="46" viewBox="0 0 46 46" fill="none" xmlns="http://www.w3.org/2000/svg">
<path d="M16.25 22.4375C14.6975 22.4375 13.4375 23.6975 13.4375 25.25C13.4375 26.8025 14.6975 28.0625 16.25 28.0625C17.8025 28.0625 19.0625 26.8025 19.0625 25.25C19.0625 23.6975 17.8025 22.4375 16.25 22.4375ZM29.75 22.4375C28.1975 22.4375 26.9375 23.6975 26.9375 25.25C26.9375 26.8025 28.1975 28.0625 29.75 28.0625C31.3025 28.0625 32.5625 26.8025 32.5625 25.25C32.5625 23.6975 31.3025 22.4375 29.75 22.4375ZM23 0.5C10.58 0.5 0.5 10.58 0.5 23C0.5 35.42 10.58 45.5 23 45.5C35.42 45.5 45.5 35.42 45.5 23C45.5 10.58 35.42 0.5 23 0.5ZM23 41C13.0775 41 5 32.9225 5 23C5 22.3475 5.045 21.695 5.1125 21.065C10.4225 18.7025 14.63 14.36 16.835 8.9825C20.9075 14.7425 27.6125 18.5 35.195 18.5C36.95 18.5 38.6375 18.2975 40.2575 17.915C40.73 19.5125 41 21.2225 41 23C41 32.9225 32.9225 41 23 41Z" fill="#514245"/>
</svg>
