<svg width="753" height="245" viewBox="0 0 753 245" fill="none" xmlns="http://www.w3.org/2000/svg">
<path d="M4.992 5.18C5.04267 4.77466 5.19467 4.496 5.448 4.344C5.752 4.14133 6.03067 4.04 6.284 4.04C9.72933 4.04 12.9467 3.93866 15.936 3.736C18.976 3.48266 21.3573 3.356 23.08 3.356C27.3867 3.356 30.984 3.78666 33.872 4.648C36.8107 5.50933 39.1667 6.852 40.94 8.676C42.764 10.5 44.056 12.856 44.816 15.744C45.576 18.632 45.956 22.1027 45.956 26.156C45.956 30.26 45.5253 34.288 44.664 38.24C43.8533 42.1413 42.4093 45.612 40.332 48.652C38.2547 51.692 35.4427 54.1493 31.896 56.024C28.4 57.848 23.9667 58.76 18.596 58.76C16.1133 58.76 13.8333 58.7093 11.756 58.608C9.72933 58.5067 7.98133 58.2027 6.512 57.696C5.04267 57.1893 3.90267 56.4293 3.092 55.416C2.28133 54.4027 1.876 53.0093 1.876 51.236C1.876 50.5773 1.90133 49.5893 1.952 48.272C2.05333 46.9547 2.15467 45.384 2.256 43.56C2.408 41.736 2.56 39.7347 2.712 37.556C2.91467 35.3267 3.11733 32.996 3.32 30.564C3.72533 25.548 4.02933 21.5453 4.232 18.556C4.48533 15.5667 4.63733 13.236 4.688 11.564C4.78933 9.84133 4.84 8.54933 4.84 7.688C4.89067 6.82666 4.94133 5.99066 4.992 5.18ZM19.128 46.752C21.9653 46.752 24.22 46.144 25.892 44.928C27.6147 43.712 28.932 42.1667 29.844 40.292C30.756 38.4173 31.364 36.3653 31.668 34.136C31.972 31.9067 32.124 29.804 32.124 27.828C32.124 25.7 31.972 23.8507 31.668 22.28C31.4147 20.6587 30.9333 19.316 30.224 18.252C29.5653 17.188 28.628 16.4027 27.412 15.896C26.196 15.3387 24.676 15.06 22.852 15.06C22.2947 15.06 21.5853 15.0853 20.724 15.136C19.8627 15.1867 18.824 15.2627 17.608 15.364C17.5067 17.2387 17.38 19.468 17.228 22.052C17.076 24.5853 16.8987 27.2707 16.696 30.108C16.544 32.8947 16.3667 35.732 16.164 38.62C15.9613 41.4573 15.7587 44.092 15.556 46.524C16.316 46.6253 17 46.7013 17.608 46.752C18.216 46.752 18.7227 46.752 19.128 46.752ZM59.5612 58C57.9905 58 56.6985 57.848 55.6852 57.544C54.7225 57.1893 53.9372 56.708 53.3292 56.1C52.7719 55.492 52.3665 54.7573 52.1132 53.896C51.9105 52.984 51.8092 51.9453 51.8092 50.78C51.8092 50.02 51.8345 48.956 51.8852 47.588C51.9865 46.1693 52.1385 44.244 52.3412 41.812C52.5439 39.3293 52.7719 36.2133 53.0252 32.464C53.3292 28.664 53.6839 23.9773 54.0892 18.404C54.1399 17.2893 54.2665 16.6307 54.4692 16.428C54.6212 16.276 55.0265 16.2 55.6852 16.2H58.6492C60.2199 16.2 61.4865 16.352 62.4492 16.656C63.4625 16.96 64.2479 17.416 64.8052 18.024C65.4132 18.632 65.8185 19.3667 66.0212 20.228C66.2745 21.0893 66.4012 22.052 66.4012 23.116C66.4012 23.876 66.3505 25.016 66.2492 26.536C66.1479 28.056 65.9959 30.1333 65.7932 32.768C65.6412 35.352 65.4132 38.5947 65.1092 42.496C64.8052 46.3467 64.4252 51.008 63.9692 56.48C63.9185 57.088 63.7919 57.4933 63.5892 57.696C63.3865 57.8987 62.9559 58 62.2972 58H59.5612ZM54.1652 7.232C54.1652 5.20533 54.8999 3.60933 56.3692 2.444C57.8385 1.27867 59.8145 0.695999 62.2972 0.695999C64.4759 0.695999 66.0465 1.152 67.0092 2.064C68.0225 2.92533 68.5292 4.09066 68.5292 5.56C68.5292 7.43466 67.8199 9.00533 66.4012 10.272C65.0332 11.488 63.0065 12.096 60.3212 12.096C56.2172 12.096 54.1652 10.4747 54.1652 7.232ZM90.8162 15.44C95.1229 15.44 98.2895 16.3013 100.316 18.024C102.343 19.696 103.356 21.8493 103.356 24.484C103.356 26.7133 102.647 28.4107 101.228 29.576C99.8602 30.7413 97.8589 31.324 95.2242 31.324C94.5149 31.324 94.0335 31.248 93.7802 31.096C93.5269 30.944 93.4002 30.6653 93.4002 30.26C93.4002 29.804 93.3495 29.2973 93.2482 28.74C93.1975 28.132 93.0202 27.5747 92.7162 27.068C92.4629 26.5107 92.0322 26.0547 91.4242 25.7C90.8669 25.3453 90.0562 25.168 88.9922 25.168C87.5735 25.168 86.4335 25.5227 85.5722 26.232C84.7109 26.8907 84.2802 27.7267 84.2802 28.74C84.2802 29.804 84.7109 30.6653 85.5722 31.324C86.4842 31.932 87.5989 32.5147 88.9162 33.072C90.2842 33.6293 91.7535 34.212 93.3242 34.82C94.8949 35.3773 96.3389 36.1373 97.6562 37.1C99.0242 38.0627 100.139 39.2787 101 40.748C101.912 42.1667 102.368 44.016 102.368 46.296C102.368 49.944 101.076 52.9333 98.4922 55.264C95.9082 57.5947 92.0322 58.76 86.8642 58.76C85.4455 58.76 83.7989 58.6333 81.9242 58.38C80.1002 58.1773 78.3522 57.848 76.6802 57.392C75.0082 56.8853 73.5895 56.2267 72.4242 55.416C71.3095 54.6053 70.7522 53.592 70.7522 52.376C70.7522 51.92 70.8282 51.3627 70.9802 50.704C71.1829 50.0453 71.4615 49.412 71.8162 48.804C72.2215 48.196 72.6775 47.6893 73.1842 47.284C73.7415 46.828 74.4002 46.6 75.1602 46.6C75.7682 46.6 76.3255 46.752 76.8322 47.056C77.3389 47.36 77.9215 47.6893 78.5802 48.044C79.2895 48.348 80.1509 48.652 81.1642 48.956C82.1775 49.26 83.5202 49.412 85.1922 49.412C86.4589 49.412 87.5735 49.26 88.5362 48.956C89.5495 48.652 90.0562 47.968 90.0562 46.904C90.0562 45.9413 89.6509 45.1813 88.8402 44.624C88.0295 44.016 86.9909 43.4587 85.7242 42.952C84.5082 42.4453 83.1655 41.9133 81.6962 41.356C80.2775 40.748 78.9349 39.9627 77.6682 39C76.4522 38.0373 75.4389 36.8213 74.6282 35.352C73.8175 33.832 73.4122 31.8813 73.4122 29.5C73.4122 26.916 73.9189 24.7373 74.9322 22.964C75.9962 21.14 77.3389 19.6707 78.9602 18.556C80.6322 17.4413 82.5069 16.656 84.5842 16.2C86.6615 15.6933 88.7389 15.44 90.8162 15.44ZM127.959 48.652C129.429 48.652 130.695 48.4493 131.759 48.044C132.874 47.6387 133.837 47.1827 134.647 46.676C135.458 46.1693 136.142 45.7133 136.699 45.308C137.257 44.9027 137.763 44.7 138.219 44.7C139.385 44.7 139.967 45.46 139.967 46.98C139.967 47.3347 139.891 47.8413 139.739 48.5C139.587 49.108 139.385 49.7667 139.131 50.476C138.878 51.1347 138.599 51.768 138.295 52.376C138.042 52.984 137.789 53.44 137.535 53.744C137.282 53.9973 136.826 54.4027 136.167 54.96C135.559 55.5173 134.723 56.0747 133.659 56.632C132.595 57.1893 131.354 57.6707 129.935 58.076C128.517 58.532 126.946 58.76 125.223 58.76C123.298 58.76 121.297 58.4813 119.219 57.924C117.193 57.316 115.343 56.3027 113.671 54.884C111.999 53.4147 110.606 51.464 109.491 49.032C108.427 46.5493 107.895 43.4587 107.895 39.76C107.895 38.4427 107.971 36.948 108.123 35.276C108.326 33.5533 108.706 31.8053 109.263 30.032C109.821 28.208 110.555 26.4347 111.467 24.712C112.43 22.9387 113.697 21.368 115.267 20C116.838 18.632 118.713 17.5427 120.891 16.732C123.121 15.8707 125.755 15.44 128.795 15.44C131.278 15.44 133.406 15.744 135.179 16.352C137.003 16.9093 138.498 17.6947 139.663 18.708C140.829 19.6707 141.69 20.8107 142.247 22.128C142.855 23.4453 143.159 24.864 143.159 26.384C143.159 29.12 142.298 31.1467 140.575 32.464C138.853 33.7307 136.421 34.364 133.279 34.364C132.519 34.364 131.987 34.3133 131.683 34.212C131.43 34.06 131.303 33.756 131.303 33.3C131.303 32.084 131.278 30.9947 131.227 30.032C131.177 29.0693 131.025 28.2587 130.771 27.6C130.569 26.9413 130.239 26.4347 129.783 26.08C129.327 25.7253 128.669 25.548 127.807 25.548C126.237 25.548 124.97 26.0547 124.007 27.068C123.095 28.0813 122.386 29.3227 121.879 30.792C121.423 32.2107 121.119 33.68 120.967 35.2C120.866 36.72 120.815 37.9867 120.815 39C120.815 42.5973 121.373 45.1053 122.487 46.524C123.653 47.9427 125.477 48.652 127.959 48.652ZM164.425 58.76C160.929 58.76 158.016 58.2787 155.685 57.316C153.405 56.3027 151.581 54.9347 150.213 53.212C148.845 51.4893 147.882 49.488 147.325 47.208C146.768 44.8773 146.489 42.3947 146.489 39.76C146.489 36.72 146.844 33.756 147.553 30.868C148.313 27.9293 149.58 25.32 151.353 23.04C153.126 20.76 155.457 18.936 158.345 17.568C161.284 16.1493 164.932 15.44 169.289 15.44C175.673 15.44 180.233 17.0107 182.969 20.152C185.756 23.2427 187.149 27.6 187.149 33.224C187.149 34.7947 187.022 36.5427 186.769 38.468C186.566 40.3427 186.136 42.2173 185.477 44.092C184.869 45.9667 184.008 47.7907 182.893 49.564C181.829 51.3373 180.461 52.908 178.789 54.276C177.117 55.644 175.09 56.7333 172.709 57.544C170.378 58.3547 167.617 58.76 164.425 58.76ZM167.997 25.548C166.072 25.548 164.526 26.0547 163.361 27.068C162.246 28.0307 161.385 29.2213 160.777 30.64C160.22 32.008 159.84 33.4773 159.637 35.048C159.485 36.568 159.409 37.86 159.409 38.924C159.409 42.268 159.941 44.7253 161.005 46.296C162.069 47.8667 163.589 48.652 165.565 48.652C167.338 48.652 168.782 48.0947 169.897 46.98C171.062 45.8653 171.949 44.5227 172.557 42.952C173.216 41.3813 173.646 39.7347 173.849 38.012C174.102 36.2893 174.229 34.8453 174.229 33.68C174.229 31.1467 173.748 29.1707 172.785 27.752C171.873 26.2827 170.277 25.548 167.997 25.548ZM209.485 48.348C210.093 46.22 210.65 44.1173 211.157 42.04C211.714 39.9627 212.246 37.7587 212.753 35.428C213.31 33.0467 213.893 30.4627 214.501 27.676C215.16 24.8387 215.92 21.6213 216.781 18.024C216.933 17.3147 217.161 16.8587 217.465 16.656C217.769 16.4027 218.428 16.276 219.441 16.276C220.201 16.276 221.214 16.3013 222.481 16.352C223.748 16.4027 224.989 16.58 226.205 16.884C227.421 17.188 228.46 17.644 229.321 18.252C230.233 18.86 230.689 19.696 230.689 20.76C230.689 21.6213 230.385 23.0147 229.777 24.94C229.169 26.8653 228.384 29.0693 227.421 31.552C226.458 33.984 225.369 36.5427 224.153 39.228C222.988 41.9133 221.848 44.4467 220.733 46.828C219.618 49.2093 218.58 51.312 217.617 53.136C216.654 54.9093 215.945 56.1507 215.489 56.86C215.084 57.4173 214.729 57.7467 214.425 57.848C214.121 57.9493 213.614 58 212.905 58H206.141C205.077 58 204.19 57.8227 203.481 57.468C202.822 57.0627 202.265 56.556 201.809 55.948C201.353 55.34 200.973 54.656 200.669 53.896C200.365 53.0853 200.086 52.2493 199.833 51.388C198.364 46.3213 197.072 41.9893 195.957 38.392C194.893 34.744 193.981 31.704 193.221 29.272C192.461 26.84 191.853 24.9147 191.397 23.496C190.941 22.0267 190.586 20.912 190.333 20.152C190.08 19.3413 189.902 18.8093 189.801 18.556C189.7 18.252 189.649 18.0493 189.649 17.948C189.7 17.5933 189.953 17.2133 190.409 16.808C190.865 16.4027 191.448 16.2 192.157 16.2C194.488 16.2 196.464 16.3013 198.085 16.504C199.757 16.656 201.125 16.96 202.189 17.416C203.304 17.872 204.14 18.5053 204.697 19.316C205.305 20.1267 205.736 21.1907 205.989 22.508C206.04 22.8627 206.141 23.572 206.293 24.636C206.445 25.7 206.597 26.992 206.749 28.512C206.952 29.9813 207.18 31.628 207.433 33.452C207.686 35.2253 207.914 37.024 208.117 38.848C208.37 40.6213 208.598 42.344 208.801 44.016C209.054 45.688 209.282 47.132 209.485 48.348ZM251.57 58.76C249.341 58.76 247.112 58.4813 244.882 57.924C242.704 57.3667 240.728 56.404 238.954 55.036C237.232 53.668 235.813 51.844 234.698 49.564C233.584 47.284 233.026 44.4213 233.026 40.976C233.026 39.7093 233.128 38.1893 233.33 36.416C233.533 34.6427 233.913 32.8187 234.47 30.944C235.078 29.0693 235.889 27.22 236.902 25.396C237.966 23.5213 239.334 21.8493 241.006 20.38C242.678 18.9107 244.705 17.72 247.086 16.808C249.468 15.896 252.305 15.44 255.598 15.44C258.233 15.44 260.462 15.744 262.286 16.352C264.11 16.96 265.58 17.796 266.694 18.86C267.809 19.8733 268.62 21.064 269.126 22.432C269.633 23.8 269.886 25.2693 269.886 26.84C269.886 29.1707 269.405 31.1467 268.442 32.768C267.53 34.3893 266.314 35.7573 264.794 36.872C263.325 37.936 261.678 38.772 259.854 39.38C258.03 39.988 256.232 40.4693 254.458 40.824C252.685 41.128 251.038 41.3307 249.518 41.432C248.049 41.4827 246.909 41.508 246.098 41.508C246.098 42.4707 246.225 43.4333 246.478 44.396C246.782 45.308 247.213 46.1187 247.77 46.828C248.328 47.5373 249.062 48.12 249.974 48.576C250.886 49.032 252.001 49.26 253.318 49.26C254.636 49.26 255.649 49.0573 256.358 48.652C257.118 48.196 257.726 47.7147 258.182 47.208C258.638 46.6507 259.018 46.1693 259.322 45.764C259.677 45.308 260.133 45.08 260.69 45.08C260.944 45.08 261.374 45.156 261.982 45.308C262.641 45.4093 263.3 45.6627 263.958 46.068C264.617 46.4733 265.2 47.0307 265.706 47.74C266.213 48.4493 266.466 49.3613 266.466 50.476C266.466 51.9453 266.01 53.212 265.098 54.276C264.186 55.34 262.996 56.2013 261.526 56.86C260.108 57.5187 258.512 58 256.738 58.304C254.965 58.608 253.242 58.76 251.57 58.76ZM253.014 25.548C251.9 25.548 250.937 25.8773 250.126 26.536C249.366 27.144 248.708 27.9293 248.15 28.892C247.644 29.8547 247.238 30.9187 246.934 32.084C246.681 33.2493 246.478 34.364 246.326 35.428C249.468 35.3773 252.001 34.8453 253.926 33.832C255.902 32.8187 256.89 31.3747 256.89 29.5C256.89 28.4867 256.561 27.5747 255.902 26.764C255.294 25.9533 254.332 25.548 253.014 25.548ZM299.012 34.364C298.708 34.364 298.353 34.364 297.948 34.364C297.593 34.3133 297.238 34.2627 296.884 34.212C296.529 34.1107 296.225 34.0093 295.972 33.908C295.718 33.756 295.592 33.5787 295.592 33.376C295.592 32.7173 295.617 32.1093 295.668 31.552C295.718 30.9947 295.744 30.412 295.744 29.804C295.744 28.6893 295.592 27.7773 295.288 27.068C294.984 26.3587 294.376 26.004 293.464 26.004C292.045 26.004 290.854 26.9413 289.892 28.816C288.98 30.64 288.397 33.4013 288.144 37.1C288.042 38.7213 287.89 40.5707 287.688 42.648C287.536 44.6747 287.384 46.6507 287.232 48.576C287.08 50.4507 286.953 52.1227 286.852 53.592C286.75 55.0613 286.7 56.024 286.7 56.48C286.7 56.9867 286.522 57.3667 286.168 57.62C285.813 57.8733 285.433 58 285.028 58H282.292C280.721 58 279.429 57.848 278.416 57.544C277.453 57.1893 276.668 56.708 276.06 56.1C275.502 55.492 275.097 54.7573 274.844 53.896C274.641 52.984 274.54 51.9453 274.54 50.78C274.54 50.02 274.565 48.956 274.616 47.588C274.717 46.1693 274.869 44.244 275.072 41.812C275.274 39.3293 275.502 36.2133 275.756 32.464C276.06 28.664 276.414 23.9773 276.82 18.404C276.921 16.9347 277.453 16.2 278.416 16.2H281.38C282.798 16.2 283.989 16.352 284.952 16.656C285.914 16.96 286.7 17.3907 287.308 17.948C287.916 18.4547 288.346 19.0627 288.6 19.772C288.904 20.4813 289.106 21.216 289.208 21.976C289.816 20.8107 290.525 19.8227 291.336 19.012C292.197 18.1507 293.084 17.4667 293.996 16.96C294.908 16.4027 295.845 16.0227 296.808 15.82C297.77 15.5667 298.657 15.44 299.468 15.44C300.43 15.44 301.393 15.6173 302.356 15.972C303.369 16.3267 304.281 16.8587 305.092 17.568C305.902 18.2773 306.536 19.1893 306.992 20.304C307.498 21.4187 307.752 22.736 307.752 24.256C307.752 25.624 307.549 26.916 307.144 28.132C306.738 29.348 306.156 30.4373 305.396 31.4C304.636 32.312 303.698 33.0467 302.584 33.604C301.52 34.1107 300.329 34.364 299.012 34.364ZM342.605 58C339.565 58 337.488 57.4173 336.373 56.252C335.259 55.036 334.701 53.1867 334.701 50.704C334.701 49.8427 334.752 48.4493 334.853 46.524C334.955 44.5987 335.183 41.6093 335.537 37.556C335.132 36.796 334.777 36.1373 334.473 35.58C334.169 35.0227 333.865 34.44 333.561 33.832C333.257 33.224 332.928 32.5147 332.573 31.704C332.219 30.8933 331.763 29.88 331.205 28.664C330.344 26.7893 329.356 24.6107 328.241 22.128C327.177 19.6453 326.139 17.264 325.125 14.984C324.112 12.6533 323.251 10.6013 322.541 8.828C321.883 7.05466 321.553 5.94 321.553 5.484C321.553 4.42 323.251 3.888 326.645 3.888C328.773 3.888 330.471 4.116 331.737 4.572C333.055 4.97733 334.119 5.56 334.929 6.32C335.74 7.02933 336.348 7.89067 336.753 8.904C337.159 9.86666 337.539 10.9053 337.893 12.02C338.349 13.4893 338.679 14.5787 338.881 15.288C339.084 15.9973 339.236 16.58 339.337 17.036C339.489 17.492 339.641 17.948 339.793 18.404C339.945 18.8093 340.148 19.468 340.401 20.38C340.705 21.292 341.111 22.5587 341.617 24.18C342.124 25.8013 342.833 28.0307 343.745 30.868C345.215 27.7773 346.38 25.2693 347.241 23.344C348.153 21.4187 348.939 19.6453 349.597 18.024C350.256 16.352 350.864 14.6547 351.421 12.932C352.029 11.1587 352.789 8.92933 353.701 6.244C354.005 5.28133 354.309 4.67333 354.613 4.42C354.968 4.116 355.5 3.964 356.209 3.964C356.463 3.964 357.147 4.01466 358.261 4.116C359.427 4.16667 360.617 4.344 361.833 4.648C363.1 4.952 364.24 5.43333 365.253 6.092C366.267 6.75067 366.773 7.63733 366.773 8.752C366.773 9.61333 366.469 10.8293 365.861 12.4C365.304 13.9707 364.544 15.744 363.581 17.72C362.669 19.6453 361.58 21.6973 360.313 23.876C359.097 26.0547 357.831 28.1827 356.513 30.26C355.196 32.3373 353.879 34.2627 352.561 36.036C351.295 37.7587 350.129 39.1773 349.065 40.292C349.015 41.508 348.939 42.952 348.837 44.624C348.787 46.296 348.685 47.968 348.533 49.64C348.432 51.2613 348.331 52.756 348.229 54.124C348.128 55.4413 348.052 56.3533 348.001 56.86C347.951 57.2653 347.849 57.5693 347.697 57.772C347.545 57.924 347.241 58 346.785 58H342.605ZM382.777 58.76C379.281 58.76 376.367 58.2787 374.037 57.316C371.757 56.3027 369.933 54.9347 368.565 53.212C367.197 51.4893 366.234 49.488 365.677 47.208C365.119 44.8773 364.841 42.3947 364.841 39.76C364.841 36.72 365.195 33.756 365.905 30.868C366.665 27.9293 367.931 25.32 369.705 23.04C371.478 20.76 373.809 18.936 376.697 17.568C379.635 16.1493 383.283 15.44 387.641 15.44C394.025 15.44 398.585 17.0107 401.321 20.152C404.107 23.2427 405.501 27.6 405.501 33.224C405.501 34.7947 405.374 36.5427 405.121 38.468C404.918 40.3427 404.487 42.2173 403.829 44.092C403.221 45.9667 402.359 47.7907 401.245 49.564C400.181 51.3373 398.813 52.908 397.141 54.276C395.469 55.644 393.442 56.7333 391.061 57.544C388.73 58.3547 385.969 58.76 382.777 58.76ZM386.349 25.548C384.423 25.548 382.878 26.0547 381.713 27.068C380.598 28.0307 379.737 29.2213 379.129 30.64C378.571 32.008 378.191 33.4773 377.989 35.048C377.837 36.568 377.761 37.86 377.761 38.924C377.761 42.268 378.293 44.7253 379.357 46.296C380.421 47.8667 381.941 48.652 383.917 48.652C385.69 48.652 387.134 48.0947 388.249 46.98C389.414 45.8653 390.301 44.5227 390.909 42.952C391.567 41.3813 391.998 39.7347 392.201 38.012C392.454 36.2893 392.581 34.8453 392.581 33.68C392.581 31.1467 392.099 29.1707 391.137 27.752C390.225 26.2827 388.629 25.548 386.349 25.548ZM425.691 22.66C425.691 23.724 425.589 25.2187 425.387 27.144C425.235 29.0693 425.057 31.0707 424.855 33.148C424.703 35.2253 424.525 37.176 424.323 39C424.171 40.824 424.095 42.1413 424.095 42.952C424.095 44.7253 424.525 46.1187 425.387 47.132C426.299 48.0947 427.54 48.576 429.111 48.576C430.479 48.576 431.619 48.044 432.531 46.98C433.493 45.8653 434.253 44.4467 434.811 42.724C435.419 40.9507 435.9 38.9493 436.255 36.72C436.609 34.4907 436.863 32.236 437.015 29.956C437.217 27.676 437.369 25.472 437.471 23.344C437.623 21.1653 437.775 19.2907 437.927 17.72C437.977 17.3147 438.129 16.96 438.383 16.656C438.636 16.352 439.041 16.2 439.599 16.2H442.335C443.905 16.2 445.172 16.3773 446.135 16.732C447.148 17.036 447.933 17.492 448.491 18.1C449.099 18.708 449.504 19.468 449.707 20.38C449.96 21.2413 450.087 22.2547 450.087 23.42C450.087 24.18 450.036 25.2693 449.935 26.688C449.884 28.056 449.757 29.9813 449.555 32.464C449.352 34.896 449.099 38.012 448.795 41.812C448.541 45.5613 448.212 50.2227 447.807 55.796C447.705 56.86 447.579 57.4933 447.427 57.696C447.325 57.8987 446.92 58 446.211 58H443.247C441.727 58 440.46 57.8227 439.447 57.468C438.484 57.1133 437.699 56.6573 437.091 56.1C436.483 55.5427 436.052 54.884 435.799 54.124C435.545 53.364 435.393 52.5787 435.343 51.768C434.583 53.0853 433.721 54.2 432.759 55.112C431.847 56.024 430.884 56.7587 429.871 57.316C428.857 57.8227 427.819 58.1773 426.755 58.38C425.691 58.6333 424.652 58.76 423.639 58.76C421.713 58.76 419.991 58.456 418.471 57.848C416.951 57.1893 415.659 56.328 414.595 55.264C413.581 54.2 412.796 52.9333 412.239 51.464C411.681 49.9947 411.403 48.424 411.403 46.752C411.403 46.0933 411.428 45.0293 411.479 43.56C411.58 42.04 411.681 40.3427 411.783 38.468C411.935 36.5933 412.087 34.6173 412.239 32.54C412.391 30.412 412.517 28.4107 412.619 26.536C412.771 24.6613 412.897 23.0147 412.999 21.596C413.151 20.1773 413.252 19.164 413.303 18.556C413.404 17.644 413.607 17.036 413.911 16.732C414.215 16.3773 414.721 16.2 415.431 16.2H417.863C419.433 16.2 420.725 16.352 421.739 16.656C422.752 16.96 423.537 17.3907 424.095 17.948C424.703 18.5053 425.108 19.1893 425.311 20C425.564 20.76 425.691 21.6467 425.691 22.66ZM481.293 34.364C480.989 34.364 480.634 34.364 480.229 34.364C479.874 34.3133 479.52 34.2627 479.165 34.212C478.81 34.1107 478.506 34.0093 478.253 33.908C478 33.756 477.873 33.5787 477.873 33.376C477.873 32.7173 477.898 32.1093 477.949 31.552C478 30.9947 478.025 30.412 478.025 29.804C478.025 28.6893 477.873 27.7773 477.569 27.068C477.265 26.3587 476.657 26.004 475.745 26.004C474.326 26.004 473.136 26.9413 472.173 28.816C471.261 30.64 470.678 33.4013 470.425 37.1C470.324 38.7213 470.172 40.5707 469.969 42.648C469.817 44.6747 469.665 46.6507 469.513 48.576C469.361 50.4507 469.234 52.1227 469.133 53.592C469.032 55.0613 468.981 56.024 468.981 56.48C468.981 56.9867 468.804 57.3667 468.449 57.62C468.094 57.8733 467.714 58 467.309 58H464.573C463.002 58 461.71 57.848 460.697 57.544C459.734 57.1893 458.949 56.708 458.341 56.1C457.784 55.492 457.378 54.7573 457.125 53.896C456.922 52.984 456.821 51.9453 456.821 50.78C456.821 50.02 456.846 48.956 456.897 47.588C456.998 46.1693 457.15 44.244 457.353 41.812C457.556 39.3293 457.784 36.2133 458.037 32.464C458.341 28.664 458.696 23.9773 459.101 18.404C459.202 16.9347 459.734 16.2 460.697 16.2H463.661C465.08 16.2 466.27 16.352 467.233 16.656C468.196 16.96 468.981 17.3907 469.589 17.948C470.197 18.4547 470.628 19.0627 470.881 19.772C471.185 20.4813 471.388 21.216 471.489 21.976C472.097 20.8107 472.806 19.8227 473.617 19.012C474.478 18.1507 475.365 17.4667 476.277 16.96C477.189 16.4027 478.126 16.0227 479.089 15.82C480.052 15.5667 480.938 15.44 481.749 15.44C482.712 15.44 483.674 15.6173 484.637 15.972C485.65 16.3267 486.562 16.8587 487.373 17.568C488.184 18.2773 488.817 19.1893 489.273 20.304C489.78 21.4187 490.033 22.736 490.033 24.256C490.033 25.624 489.83 26.916 489.425 28.132C489.02 29.348 488.437 30.4373 487.677 31.4C486.917 32.312 485.98 33.0467 484.865 33.604C483.801 34.1107 482.61 34.364 481.293 34.364ZM523.688 58.76C520.699 58.76 518.241 58.5573 516.316 58.152C514.391 57.7973 512.845 57.2653 511.68 56.556C510.565 55.796 509.78 54.8587 509.324 53.744C508.919 52.6293 508.716 51.312 508.716 49.792C508.716 49.336 508.741 48.7027 508.792 47.892C508.843 47.0307 508.919 45.84 509.02 44.32C509.121 42.8 509.248 40.8493 509.4 38.468C509.603 36.036 509.856 32.996 510.16 29.348C510.515 24.8387 510.793 21.2667 510.996 18.632C511.199 15.9973 511.351 13.9707 511.452 12.552C511.553 11.0827 511.604 10.0693 511.604 9.512C511.655 8.904 511.68 8.39733 511.68 7.992C511.68 7.18133 511.68 6.52267 511.68 6.016C511.731 5.50933 511.781 5.12933 511.832 4.876C511.933 4.572 512.06 4.36933 512.212 4.268C512.415 4.116 512.693 4.04 513.048 4.04C516.037 3.83733 518.571 3.68533 520.648 3.584C522.776 3.48266 524.625 3.432 526.196 3.432C530.047 3.432 533.34 3.76133 536.076 4.42C538.863 5.028 541.117 5.91467 542.84 7.08C544.563 8.24533 545.829 9.68933 546.64 11.412C547.451 13.1347 547.856 15.0853 547.856 17.264C547.856 18.48 547.729 19.7467 547.476 21.064C547.223 22.3307 546.792 23.5467 546.184 24.712C545.576 25.8773 544.74 26.916 543.676 27.828C542.663 28.6893 541.371 29.3227 539.8 29.728C542.739 30.64 544.816 32.16 546.032 34.288C547.248 36.3653 547.856 38.848 547.856 41.736C547.856 44.0667 547.476 46.2707 546.716 48.348C545.956 50.3747 544.639 52.1733 542.764 53.744C540.889 55.264 538.407 56.48 535.316 57.392C532.225 58.304 528.349 58.76 523.688 58.76ZM528.02 35.2C527.463 35.2 526.779 35.2507 525.968 35.352C525.157 35.4027 524.321 35.504 523.46 35.656L522.624 48.044C524.448 48.6013 526.095 48.88 527.564 48.88C529.135 48.88 530.401 48.652 531.364 48.196C532.327 47.74 533.061 47.1827 533.568 46.524C534.125 45.8147 534.48 45.0547 534.632 44.244C534.835 43.3827 534.936 42.5973 534.936 41.888C534.936 40.0133 534.404 38.4427 533.34 37.176C532.327 35.8587 530.553 35.2 528.02 35.2ZM524.828 14.3C524.727 15.6173 524.625 17.1627 524.524 18.936C524.473 20.7093 524.372 22.6347 524.22 24.712C525.841 25.1173 527.285 25.32 528.552 25.32C530.072 25.32 531.288 25.1427 532.2 24.788C533.112 24.4333 533.821 23.9773 534.328 23.42C534.885 22.8627 535.24 22.2547 535.392 21.596C535.595 20.9373 535.696 20.304 535.696 19.696C535.696 18.1253 535.164 16.7827 534.1 15.668C533.087 14.5027 531.313 13.92 528.78 13.92C528.223 13.92 527.589 13.9707 526.88 14.072C526.221 14.1227 525.537 14.1987 524.828 14.3ZM571.527 58.76C569.298 58.76 567.069 58.4813 564.839 57.924C562.661 57.3667 560.685 56.404 558.911 55.036C557.189 53.668 555.77 51.844 554.655 49.564C553.541 47.284 552.983 44.4213 552.983 40.976C552.983 39.7093 553.085 38.1893 553.287 36.416C553.49 34.6427 553.87 32.8187 554.427 30.944C555.035 29.0693 555.846 27.22 556.859 25.396C557.923 23.5213 559.291 21.8493 560.963 20.38C562.635 18.9107 564.662 17.72 567.043 16.808C569.425 15.896 572.262 15.44 575.555 15.44C578.19 15.44 580.419 15.744 582.243 16.352C584.067 16.96 585.537 17.796 586.651 18.86C587.766 19.8733 588.577 21.064 589.083 22.432C589.59 23.8 589.843 25.2693 589.843 26.84C589.843 29.1707 589.362 31.1467 588.399 32.768C587.487 34.3893 586.271 35.7573 584.751 36.872C583.282 37.936 581.635 38.772 579.811 39.38C577.987 39.988 576.189 40.4693 574.415 40.824C572.642 41.128 570.995 41.3307 569.475 41.432C568.006 41.4827 566.866 41.508 566.055 41.508C566.055 42.4707 566.182 43.4333 566.435 44.396C566.739 45.308 567.17 46.1187 567.727 46.828C568.285 47.5373 569.019 48.12 569.931 48.576C570.843 49.032 571.958 49.26 573.275 49.26C574.593 49.26 575.606 49.0573 576.315 48.652C577.075 48.196 577.683 47.7147 578.139 47.208C578.595 46.6507 578.975 46.1693 579.279 45.764C579.634 45.308 580.09 45.08 580.647 45.08C580.901 45.08 581.331 45.156 581.939 45.308C582.598 45.4093 583.257 45.6627 583.915 46.068C584.574 46.4733 585.157 47.0307 585.663 47.74C586.17 48.4493 586.423 49.3613 586.423 50.476C586.423 51.9453 585.967 53.212 585.055 54.276C584.143 55.34 582.953 56.2013 581.483 56.86C580.065 57.5187 578.469 58 576.695 58.304C574.922 58.608 573.199 58.76 571.527 58.76ZM572.971 25.548C571.857 25.548 570.894 25.8773 570.083 26.536C569.323 27.144 568.665 27.9293 568.107 28.892C567.601 29.8547 567.195 30.9187 566.891 32.084C566.638 33.2493 566.435 34.364 566.283 35.428C569.425 35.3773 571.958 34.8453 573.883 33.832C575.859 32.8187 576.847 31.3747 576.847 29.5C576.847 28.4867 576.518 27.5747 575.859 26.764C575.251 25.9533 574.289 25.548 572.971 25.548ZM592.141 48.652C592.141 44.092 594.193 40.52 598.297 37.936C602.401 35.352 608.455 33.9587 616.461 33.756C616.511 33.1987 616.537 32.7427 616.537 32.388C616.587 31.9827 616.613 31.5013 616.613 30.944C616.613 29.3227 616.309 28.0307 615.701 27.068C615.093 26.1053 613.826 25.624 611.901 25.624C610.837 25.624 609.975 25.776 609.317 26.08C608.658 26.384 608.126 26.8147 607.721 27.372C607.315 27.8787 606.986 28.512 606.733 29.272C606.479 30.032 606.251 30.868 606.049 31.78C605.947 32.236 605.719 32.54 605.365 32.692C605.01 32.7933 604.453 32.844 603.693 32.844C598.525 32.844 595.941 30.8933 595.941 26.992C595.941 25.4213 596.295 23.9267 597.005 22.508C597.765 21.0893 598.854 19.8733 600.273 18.86C601.742 17.796 603.566 16.96 605.745 16.352C607.923 15.744 610.457 15.44 613.345 15.44C618.969 15.44 623.047 16.6053 625.581 18.936C628.114 21.2667 629.381 24.56 629.381 28.816C629.381 29.3733 629.305 30.3867 629.153 31.856C629.051 33.2747 628.899 34.7947 628.697 36.416C628.545 37.9867 628.393 39.4813 628.241 40.9C628.139 42.3187 628.089 43.3067 628.089 43.864C628.089 45.1307 628.317 46.0427 628.773 46.6C629.229 47.1067 629.735 47.4613 630.293 47.664C630.901 47.8667 631.433 48.0187 631.889 48.12C632.345 48.2213 632.573 48.4747 632.573 48.88C632.573 49.9947 632.421 51.1347 632.117 52.3C631.813 53.4653 631.306 54.5293 630.597 55.492C629.938 56.4547 629.001 57.24 627.785 57.848C626.619 58.456 625.175 58.76 623.453 58.76C621.021 58.76 619.197 58.1773 617.981 57.012C616.765 55.8467 615.954 54.2253 615.549 52.148C614.333 53.9213 612.737 55.4667 610.761 56.784C608.835 58.1013 606.302 58.76 603.161 58.76C601.641 58.76 600.197 58.5827 598.829 58.228C597.511 57.8733 596.346 57.2907 595.333 56.48C594.37 55.6693 593.585 54.6307 592.977 53.364C592.419 52.0467 592.141 50.476 592.141 48.652ZM615.777 39.988C614.459 39.988 613.167 40.0893 611.901 40.292C610.634 40.4947 609.494 40.824 608.481 41.28C607.518 41.6853 606.733 42.2427 606.125 42.952C605.517 43.6613 605.213 44.5227 605.213 45.536C605.213 46.7013 605.567 47.512 606.277 47.968C607.037 48.424 607.847 48.652 608.709 48.652C609.519 48.652 610.33 48.4747 611.141 48.12C611.951 47.7653 612.661 47.2333 613.269 46.524C613.927 45.764 614.485 44.852 614.941 43.788C615.397 42.724 615.675 41.4573 615.777 39.988ZM651.761 22.66C651.761 23.724 651.66 25.2187 651.457 27.144C651.305 29.0693 651.128 31.0707 650.925 33.148C650.773 35.2253 650.596 37.176 650.393 39C650.241 40.824 650.165 42.1413 650.165 42.952C650.165 44.7253 650.596 46.1187 651.457 47.132C652.369 48.0947 653.61 48.576 655.181 48.576C656.549 48.576 657.689 48.044 658.601 46.98C659.564 45.8653 660.324 44.4467 660.881 42.724C661.489 40.9507 661.97 38.9493 662.325 36.72C662.68 34.4907 662.933 32.236 663.085 29.956C663.288 27.676 663.44 25.472 663.541 23.344C663.693 21.1653 663.845 19.2907 663.997 17.72C664.048 17.3147 664.2 16.96 664.453 16.656C664.706 16.352 665.112 16.2 665.669 16.2H668.405C669.976 16.2 671.242 16.3773 672.205 16.732C673.218 17.036 674.004 17.492 674.561 18.1C675.169 18.708 675.574 19.468 675.777 20.38C676.03 21.2413 676.157 22.2547 676.157 23.42C676.157 24.18 676.106 25.2693 676.005 26.688C675.954 28.056 675.828 29.9813 675.625 32.464C675.422 34.896 675.169 38.012 674.865 41.812C674.612 45.5613 674.282 50.2227 673.877 55.796C673.776 56.86 673.649 57.4933 673.497 57.696C673.396 57.8987 672.99 58 672.281 58H669.317C667.797 58 666.53 57.8227 665.517 57.468C664.554 57.1133 663.769 56.6573 663.161 56.1C662.553 55.5427 662.122 54.884 661.869 54.124C661.616 53.364 661.464 52.5787 661.413 51.768C660.653 53.0853 659.792 54.2 658.829 55.112C657.917 56.024 656.954 56.7587 655.941 57.316C654.928 57.8227 653.889 58.1773 652.825 58.38C651.761 58.6333 650.722 58.76 649.709 58.76C647.784 58.76 646.061 58.456 644.541 57.848C643.021 57.1893 641.729 56.328 640.665 55.264C639.652 54.2 638.866 52.9333 638.309 51.464C637.752 49.9947 637.473 48.424 637.473 46.752C637.473 46.0933 637.498 45.0293 637.549 43.56C637.65 42.04 637.752 40.3427 637.853 38.468C638.005 36.5933 638.157 34.6173 638.309 32.54C638.461 30.412 638.588 28.4107 638.689 26.536C638.841 24.6613 638.968 23.0147 639.069 21.596C639.221 20.1773 639.322 19.164 639.373 18.556C639.474 17.644 639.677 17.036 639.981 16.732C640.285 16.3773 640.792 16.2 641.501 16.2H643.933C645.504 16.2 646.796 16.352 647.809 16.656C648.822 16.96 649.608 17.3907 650.165 17.948C650.773 18.5053 651.178 19.1893 651.381 20C651.634 20.76 651.761 21.6467 651.761 22.66ZM699.155 26.46C699.003 28.3853 698.826 30.2853 698.623 32.16C698.471 34.0347 698.319 35.808 698.167 37.48C698.015 39.152 697.889 40.6467 697.787 41.964C697.737 43.2813 697.711 44.2947 697.711 45.004C697.711 46.3213 697.863 47.208 698.167 47.664C698.471 48.0693 698.978 48.272 699.687 48.272C700.245 48.272 700.726 48.1707 701.131 47.968C701.537 47.7653 701.917 47.5373 702.271 47.284C702.626 47.0307 702.93 46.8027 703.183 46.6C703.487 46.3973 703.817 46.296 704.171 46.296C704.526 46.296 704.855 46.4987 705.159 46.904C705.463 47.3093 705.615 48.2467 705.615 49.716C705.615 52.5027 704.855 54.7067 703.335 56.328C701.815 57.9493 699.206 58.76 695.507 58.76C691.859 58.76 689.149 57.924 687.375 56.252C685.653 54.5293 684.791 51.92 684.791 48.424C684.791 47.664 684.817 46.7773 684.867 45.764C684.969 44.7 685.095 43.332 685.247 41.66C685.399 39.988 685.577 37.936 685.779 35.504C686.033 33.072 686.286 30.0573 686.539 26.46H682.511C682.106 26.46 681.853 26.384 681.751 26.232C681.701 26.0293 681.675 25.7507 681.675 25.396L681.903 21.52C681.954 20.8613 682.03 20.228 682.131 19.62C682.283 18.9613 682.537 18.3787 682.891 17.872C683.297 17.3653 683.854 16.96 684.563 16.656C685.273 16.352 686.21 16.2 687.375 16.2C687.73 15.288 688.135 14.1987 688.591 12.932C689.047 11.6653 689.503 10.4493 689.959 9.284C690.415 8.068 690.846 7.05466 691.251 6.244C691.707 5.43333 692.113 5.028 692.467 5.028H694.671C696.799 5.028 698.269 5.68667 699.079 7.004C699.89 8.32133 700.295 9.892 700.295 11.716C700.295 12.7293 700.219 14.224 700.067 16.2H708.047C708.858 16.2 709.263 16.5547 709.263 17.264L708.959 21.368C708.858 22.888 708.427 24.1293 707.667 25.092C706.958 26.004 705.463 26.46 703.183 26.46H699.155ZM727.687 23.192C727.687 24.3573 727.611 25.7507 727.459 27.372C727.307 28.9427 727.129 30.5387 726.927 32.16C726.775 33.7307 726.623 35.2253 726.471 36.644C726.319 38.012 726.243 39.076 726.243 39.836C726.243 41.7613 726.699 43.2053 727.611 44.168C728.573 45.08 729.739 45.536 731.107 45.536C733.488 45.536 735.388 44.2947 736.807 41.812C738.225 39.3293 739.112 36.036 739.467 31.932L740.683 17.72C740.733 17.1627 740.911 16.7827 741.215 16.58C741.569 16.3267 741.949 16.2 742.355 16.2H745.091C746.155 16.2 747.143 16.3013 748.055 16.504C749.017 16.656 749.853 16.9853 750.563 17.492C751.272 17.948 751.829 18.5813 752.235 19.392C752.64 20.2027 752.843 21.2413 752.843 22.508C752.843 23.0147 752.792 23.9773 752.691 25.396C752.64 26.764 752.513 28.7653 752.311 31.4C752.159 33.984 751.931 37.2773 751.627 41.28C751.323 45.232 750.968 50.0707 750.563 55.796C750.309 59.14 749.549 61.9013 748.283 64.08C747.067 66.3093 745.521 68.0573 743.647 69.324C741.772 70.6413 739.669 71.5533 737.339 72.06C735.008 72.5667 732.627 72.82 730.195 72.82C727.611 72.82 725.229 72.592 723.051 72.136C720.923 71.68 719.073 71.0467 717.503 70.236C715.932 69.4253 714.691 68.488 713.779 67.424C712.917 66.36 712.487 65.22 712.487 64.004C712.487 63.0413 712.689 62.2053 713.095 61.496C713.551 60.7867 714.133 60.204 714.843 59.748C715.552 59.292 716.363 58.9373 717.275 58.684C718.237 58.4813 719.225 58.38 720.239 58.38C720.745 58.38 721.1 58.6333 721.303 59.14C721.556 59.6467 721.911 60.204 722.367 60.812C722.873 61.4707 723.659 62.0533 724.723 62.56C725.787 63.0667 727.383 63.32 729.511 63.32C731.385 63.32 732.905 62.864 734.071 61.952C735.236 61.04 736.123 59.8747 736.731 58.456C737.389 57.0373 737.82 55.492 738.023 53.82C738.225 52.148 738.327 50.552 738.327 49.032C737.516 50.4507 736.604 51.616 735.591 52.528C734.628 53.3893 733.615 54.0733 732.551 54.58C731.487 55.036 730.423 55.34 729.359 55.492C728.295 55.644 727.281 55.72 726.319 55.72C724.444 55.72 722.721 55.4667 721.151 54.96C719.631 54.4533 718.313 53.6427 717.199 52.528C716.084 51.3627 715.223 49.868 714.615 48.044C714.007 46.22 713.703 44.016 713.703 41.432C713.703 40.4693 713.753 39.2027 713.855 37.632C713.956 36.0107 714.083 34.212 714.235 32.236C714.387 30.2093 714.539 28.0307 714.691 25.7C714.893 23.3693 715.096 20.988 715.299 18.556C715.4 16.9853 716.109 16.2 717.427 16.2H719.859C721.48 16.2 722.797 16.352 723.811 16.656C724.824 16.96 725.609 17.416 726.167 18.024C726.775 18.5813 727.18 19.316 727.383 20.228C727.585 21.0893 727.687 22.0773 727.687 23.192ZM48.768 139.676C49.2747 136.991 49.7307 134.66 50.136 132.684C50.5413 130.657 50.896 128.783 51.2 127.06C51.504 125.337 51.7827 123.64 52.036 121.968C52.34 120.245 52.644 118.345 52.948 116.268C53.3027 114.14 53.6827 111.733 54.088 109.048C54.544 106.312 55.076 103.044 55.684 99.244C55.836 98.2813 56.0893 97.6733 56.444 97.42C56.7987 97.116 57.6853 96.964 59.104 96.964C59.6613 96.964 60.4973 97.0147 61.612 97.116C62.7267 97.1667 63.8413 97.3947 64.956 97.8C66.0707 98.1547 67.0333 98.7373 67.844 99.548C68.7053 100.308 69.136 101.397 69.136 102.816C69.136 103.627 68.984 104.893 68.68 106.616C68.376 108.288 67.9453 110.239 67.388 112.468C66.8813 114.647 66.2733 117.028 65.564 119.612C64.9053 122.196 64.2213 124.805 63.512 127.44C62.8027 130.075 62.068 132.633 61.308 135.116C60.5987 137.599 59.9147 139.853 59.256 141.88C58.648 143.856 58.0907 145.528 57.584 146.896C57.0773 148.264 56.7227 149.151 56.52 149.556C56.216 150.113 55.7853 150.493 55.228 150.696C54.6707 150.899 54.1133 151 53.556 151H46.336C45.0187 151 43.904 150.747 42.992 150.24C42.1307 149.733 41.396 149.075 40.788 148.264C40.2307 147.453 39.7747 146.541 39.42 145.528C39.116 144.515 38.9133 143.476 38.812 142.412L35.012 108.288C34.708 110.517 34.3533 113.025 33.948 115.812C33.5933 118.599 33.188 121.436 32.732 124.324C32.3267 127.212 31.9213 130.049 31.516 132.836C31.1107 135.623 30.7053 138.181 30.3 140.512C29.8947 142.792 29.5147 144.743 29.16 146.364C28.8053 147.985 28.5013 149.049 28.248 149.556C27.9947 150.113 27.5893 150.493 27.032 150.696C26.4747 150.899 25.892 151 25.284 151H18.064C16.7973 151 15.7333 150.772 14.872 150.316C14.0613 149.809 13.3773 149.151 12.82 148.34C12.2627 147.529 11.8067 146.617 11.452 145.604C11.0973 144.54 10.7933 143.476 10.54 142.412C8.46267 134.153 6.76533 127.364 5.448 122.044C4.18133 116.724 3.168 112.468 2.408 109.276C1.648 106.033 1.116 103.677 0.812 102.208C0.558667 100.688 0.432 99.5987 0.432 98.94C0.432 98.0787 0.685333 97.5213 1.192 97.268C1.74933 97.0147 2.88933 96.888 4.612 96.888C6.74 96.888 8.51333 97.04 9.932 97.344C11.4013 97.648 12.592 98.1293 13.504 98.788C14.416 99.396 15.1 100.232 15.556 101.296C16.0627 102.309 16.392 103.551 16.544 105.02C16.544 105.223 16.5693 105.527 16.62 105.932C16.6707 106.287 16.7213 106.895 16.772 107.756C16.8733 108.617 17 109.808 17.152 111.328C17.3547 112.797 17.5827 114.773 17.836 117.256C18.14 119.739 18.4947 122.829 18.9 126.528C19.356 130.176 19.888 134.559 20.496 139.676C21.0533 136.585 21.484 134.103 21.788 132.228C22.1427 130.303 22.4467 128.631 22.7 127.212C22.9533 125.743 23.1813 124.349 23.384 123.032C23.5867 121.664 23.8147 119.992 24.068 118.016C24.372 115.989 24.7013 113.456 25.056 110.416C25.4613 107.376 25.968 103.424 26.576 98.56C26.6267 98.2053 26.8293 97.9267 27.184 97.724C27.5893 97.5213 28.0707 97.3693 28.628 97.268C29.1853 97.1667 29.7933 97.116 30.452 97.116C31.1613 97.0653 31.82 97.04 32.428 97.04C34.4547 97.04 36.1773 97.1667 37.596 97.42C39.0147 97.6227 40.18 98.0027 41.092 98.56C42.0547 99.1173 42.8147 99.8773 43.372 100.84C43.9293 101.752 44.3853 102.892 44.74 104.26C44.892 104.919 45.0693 105.831 45.272 106.996C45.4747 108.111 45.7027 109.909 45.956 112.392C46.26 114.875 46.6147 118.295 47.02 122.652C47.476 126.959 48.0587 132.633 48.768 139.676ZM80.862 151C79.2913 151 77.9993 150.848 76.986 150.544C76.0233 150.189 75.238 149.708 74.63 149.1C74.0726 148.492 73.6673 147.757 73.414 146.896C73.2113 145.984 73.11 144.945 73.11 143.78C73.11 143.02 73.1353 141.956 73.186 140.588C73.2873 139.169 73.4393 137.244 73.642 134.812C73.8446 132.329 74.0726 129.213 74.326 125.464C74.63 121.664 74.9846 116.977 75.39 111.404C75.4406 110.289 75.5673 109.631 75.77 109.428C75.922 109.276 76.3273 109.2 76.986 109.2H79.95C81.5206 109.2 82.7873 109.352 83.75 109.656C84.7633 109.96 85.5486 110.416 86.106 111.024C86.714 111.632 87.1193 112.367 87.322 113.228C87.5753 114.089 87.702 115.052 87.702 116.116C87.702 116.876 87.6513 118.016 87.55 119.536C87.4486 121.056 87.2966 123.133 87.094 125.768C86.942 128.352 86.714 131.595 86.41 135.496C86.106 139.347 85.726 144.008 85.27 149.48C85.2193 150.088 85.0926 150.493 84.89 150.696C84.6873 150.899 84.2566 151 83.598 151H80.862ZM75.466 100.232C75.466 98.2053 76.2006 96.6093 77.67 95.444C79.1393 94.2787 81.1153 93.696 83.598 93.696C85.7766 93.696 87.3473 94.152 88.31 95.064C89.3233 95.9253 89.83 97.0907 89.83 98.56C89.83 100.435 89.1206 102.005 87.702 103.272C86.334 104.488 84.3073 105.096 81.622 105.096C77.518 105.096 75.466 103.475 75.466 100.232ZM110.749 119.46C110.597 121.385 110.42 123.285 110.217 125.16C110.065 127.035 109.913 128.808 109.761 130.48C109.609 132.152 109.482 133.647 109.381 134.964C109.33 136.281 109.305 137.295 109.305 138.004C109.305 139.321 109.457 140.208 109.761 140.664C110.065 141.069 110.572 141.272 111.281 141.272C111.838 141.272 112.32 141.171 112.725 140.968C113.13 140.765 113.51 140.537 113.865 140.284C114.22 140.031 114.524 139.803 114.777 139.6C115.081 139.397 115.41 139.296 115.765 139.296C116.12 139.296 116.449 139.499 116.753 139.904C117.057 140.309 117.209 141.247 117.209 142.716C117.209 145.503 116.449 147.707 114.929 149.328C113.409 150.949 110.8 151.76 107.101 151.76C103.453 151.76 100.742 150.924 98.969 149.252C97.2463 147.529 96.385 144.92 96.385 141.424C96.385 140.664 96.4103 139.777 96.461 138.764C96.5623 137.7 96.689 136.332 96.841 134.66C96.993 132.988 97.1703 130.936 97.373 128.504C97.6263 126.072 97.8796 123.057 98.133 119.46H94.105C93.6996 119.46 93.4463 119.384 93.345 119.232C93.2943 119.029 93.269 118.751 93.269 118.396L93.497 114.52C93.5476 113.861 93.6236 113.228 93.725 112.62C93.877 111.961 94.1303 111.379 94.485 110.872C94.8903 110.365 95.4476 109.96 96.157 109.656C96.8663 109.352 97.8036 109.2 98.969 109.2C99.3236 108.288 99.729 107.199 100.185 105.932C100.641 104.665 101.097 103.449 101.553 102.284C102.009 101.068 102.44 100.055 102.845 99.244C103.301 98.4333 103.706 98.028 104.061 98.028H106.265C108.393 98.028 109.862 98.6867 110.673 100.004C111.484 101.321 111.889 102.892 111.889 104.716C111.889 105.729 111.813 107.224 111.661 109.2H119.641C120.452 109.2 120.857 109.555 120.857 110.264L120.553 114.368C120.452 115.888 120.021 117.129 119.261 118.092C118.552 119.004 117.057 119.46 114.777 119.46H110.749ZM149.996 141.576C150.148 139.904 150.3 138.156 150.452 136.332C150.655 134.508 150.807 132.76 150.908 131.088C151.06 129.416 151.187 127.921 151.288 126.604C151.39 125.287 151.44 124.324 151.44 123.716C151.44 122.399 151.111 121.233 150.452 120.22C149.844 119.156 148.628 118.624 146.804 118.624C144.372 118.624 142.396 119.764 140.876 122.044C139.407 124.324 138.546 127.364 138.292 131.164C138.191 132.228 138.064 133.723 137.912 135.648C137.76 137.523 137.608 139.448 137.456 141.424C137.304 143.349 137.152 145.097 137 146.668C136.899 148.188 136.848 149.125 136.848 149.48C136.848 150.088 136.722 150.493 136.468 150.696C136.266 150.899 135.835 151 135.176 151H132.44C130.87 151 129.578 150.848 128.564 150.544C127.602 150.189 126.816 149.708 126.208 149.1C125.651 148.492 125.246 147.757 124.992 146.896C124.79 145.984 124.688 144.945 124.688 143.78C124.688 142.665 124.764 141.12 124.916 139.144C125.119 137.117 125.372 134.356 125.676 130.86C125.98 127.313 126.335 122.804 126.74 117.332C127.146 111.86 127.576 105.071 128.032 96.964C128.083 95.8493 128.21 95.1907 128.412 94.988C128.564 94.836 128.97 94.76 129.628 94.76H132.592C134.112 94.76 135.379 94.9373 136.392 95.292C137.406 95.6467 138.216 96.128 138.824 96.736C139.432 97.344 139.863 98.0533 140.116 98.864C140.37 99.624 140.496 100.435 140.496 101.296C140.496 102.208 140.395 103.905 140.192 106.388C140.04 108.871 139.838 111.784 139.584 115.128C141.104 112.595 142.776 110.847 144.6 109.884C146.475 108.921 148.831 108.44 151.668 108.44C153.796 108.44 155.646 108.668 157.216 109.124C158.787 109.58 160.079 110.365 161.092 111.48C162.156 112.544 162.942 113.963 163.448 115.736C163.955 117.459 164.208 119.612 164.208 122.196C164.208 123.007 164.132 124.4 163.98 126.376C163.828 128.352 163.626 130.607 163.372 133.14C163.17 135.673 162.942 138.333 162.688 141.12C162.486 143.856 162.308 146.364 162.156 148.644C162.106 149.201 162.055 149.632 162.004 149.936C161.954 150.24 161.852 150.468 161.7 150.62C161.599 150.772 161.422 150.873 161.168 150.924C160.915 150.975 160.56 151 160.104 151H157.672C156.051 151 154.734 150.848 153.72 150.544C152.707 150.24 151.922 149.809 151.364 149.252C150.807 148.695 150.402 148.011 150.148 147.2C149.946 146.339 149.844 145.376 149.844 144.312C149.844 143.805 149.844 143.324 149.844 142.868C149.895 142.412 149.946 141.981 149.996 141.576ZM222.139 151C220.062 151 218.516 150.696 217.503 150.088C216.49 149.48 215.755 148.72 215.299 147.808C212.664 142.387 210.182 137.193 207.851 132.228C205.571 127.263 203.24 122.247 200.859 117.18C200.91 122.652 200.986 128.099 201.087 133.52C201.188 138.941 201.29 144.388 201.391 149.86C201.391 150.62 200.986 151 200.175 151H195.995C193.107 151 191.055 150.443 189.839 149.328C188.674 148.163 188.091 146.465 188.091 144.236C188.091 143.628 188.116 142.615 188.167 141.196C188.268 139.727 188.395 138.004 188.547 136.028C188.699 134.052 188.851 131.899 189.003 129.568C189.206 127.187 189.408 124.78 189.611 122.348C189.915 118.497 190.168 115.305 190.371 112.772C190.574 110.239 190.726 108.111 190.827 106.388C190.979 104.615 191.08 103.12 191.131 101.904C191.182 100.637 191.232 99.396 191.283 98.18C191.283 97.42 191.688 97.04 192.499 97.04H198.579C200.251 97.04 201.619 97.2427 202.683 97.648C203.747 98.0027 204.608 98.5093 205.267 99.168C205.976 99.8267 206.534 100.587 206.939 101.448C207.344 102.259 207.724 103.12 208.079 104.032C209.295 107.173 210.359 109.884 211.271 112.164C212.234 114.444 213.07 116.445 213.779 118.168C214.488 119.891 215.096 121.385 215.603 122.652C216.16 123.919 216.667 125.084 217.123 126.148C217.579 127.212 218.035 128.251 218.491 129.264C218.947 130.227 219.428 131.291 219.935 132.456C219.935 129.467 219.91 126.401 219.859 123.26C219.859 120.068 219.834 116.977 219.783 113.988C219.783 110.948 219.758 108.035 219.707 105.248C219.707 102.461 219.707 99.9533 219.707 97.724C219.707 97.268 220.138 97.04 220.999 97.04H225.179C226.851 97.04 228.168 97.2173 229.131 97.572C230.144 97.876 230.93 98.3573 231.487 99.016C232.044 99.624 232.399 100.384 232.551 101.296C232.754 102.208 232.855 103.247 232.855 104.412C232.855 105.679 232.779 107.629 232.627 110.264C232.475 112.848 232.298 115.761 232.095 119.004C231.892 122.247 231.664 125.616 231.411 129.112C231.158 132.557 230.904 135.749 230.651 138.688C230.448 141.627 230.246 144.135 230.043 146.212C229.891 148.239 229.79 149.429 229.739 149.784C229.739 150.189 229.587 150.493 229.283 150.696C229.03 150.899 228.726 151 228.371 151H222.139ZM237.375 141.652C237.375 137.092 239.427 133.52 243.531 130.936C247.635 128.352 253.69 126.959 261.695 126.756C261.746 126.199 261.771 125.743 261.771 125.388C261.822 124.983 261.847 124.501 261.847 123.944C261.847 122.323 261.543 121.031 260.935 120.068C260.327 119.105 259.06 118.624 257.135 118.624C256.071 118.624 255.21 118.776 254.551 119.08C253.892 119.384 253.36 119.815 252.955 120.372C252.55 120.879 252.22 121.512 251.967 122.272C251.714 123.032 251.486 123.868 251.283 124.78C251.182 125.236 250.954 125.54 250.599 125.692C250.244 125.793 249.687 125.844 248.927 125.844C243.759 125.844 241.175 123.893 241.175 119.992C241.175 118.421 241.53 116.927 242.239 115.508C242.999 114.089 244.088 112.873 245.507 111.86C246.976 110.796 248.8 109.96 250.979 109.352C253.158 108.744 255.691 108.44 258.579 108.44C264.203 108.44 268.282 109.605 270.815 111.936C273.348 114.267 274.615 117.56 274.615 121.816C274.615 122.373 274.539 123.387 274.387 124.856C274.286 126.275 274.134 127.795 273.931 129.416C273.779 130.987 273.627 132.481 273.475 133.9C273.374 135.319 273.323 136.307 273.323 136.864C273.323 138.131 273.551 139.043 274.007 139.6C274.463 140.107 274.97 140.461 275.527 140.664C276.135 140.867 276.667 141.019 277.123 141.12C277.579 141.221 277.807 141.475 277.807 141.88C277.807 142.995 277.655 144.135 277.351 145.3C277.047 146.465 276.54 147.529 275.831 148.492C275.172 149.455 274.235 150.24 273.019 150.848C271.854 151.456 270.41 151.76 268.687 151.76C266.255 151.76 264.431 151.177 263.215 150.012C261.999 148.847 261.188 147.225 260.783 145.148C259.567 146.921 257.971 148.467 255.995 149.784C254.07 151.101 251.536 151.76 248.395 151.76C246.875 151.76 245.431 151.583 244.063 151.228C242.746 150.873 241.58 150.291 240.567 149.48C239.604 148.669 238.819 147.631 238.211 146.364C237.654 145.047 237.375 143.476 237.375 141.652ZM261.011 132.988C259.694 132.988 258.402 133.089 257.135 133.292C255.868 133.495 254.728 133.824 253.715 134.28C252.752 134.685 251.967 135.243 251.359 135.952C250.751 136.661 250.447 137.523 250.447 138.536C250.447 139.701 250.802 140.512 251.511 140.968C252.271 141.424 253.082 141.652 253.943 141.652C254.754 141.652 255.564 141.475 256.375 141.12C257.186 140.765 257.895 140.233 258.503 139.524C259.162 138.764 259.719 137.852 260.175 136.788C260.631 135.724 260.91 134.457 261.011 132.988ZM298.819 119.46C298.667 121.385 298.49 123.285 298.287 125.16C298.135 127.035 297.983 128.808 297.831 130.48C297.679 132.152 297.553 133.647 297.451 134.964C297.401 136.281 297.375 137.295 297.375 138.004C297.375 139.321 297.527 140.208 297.831 140.664C298.135 141.069 298.642 141.272 299.351 141.272C299.909 141.272 300.39 141.171 300.795 140.968C301.201 140.765 301.581 140.537 301.935 140.284C302.29 140.031 302.594 139.803 302.847 139.6C303.151 139.397 303.481 139.296 303.835 139.296C304.19 139.296 304.519 139.499 304.823 139.904C305.127 140.309 305.279 141.247 305.279 142.716C305.279 145.503 304.519 147.707 302.999 149.328C301.479 150.949 298.87 151.76 295.171 151.76C291.523 151.76 288.813 150.924 287.039 149.252C285.317 147.529 284.455 144.92 284.455 141.424C284.455 140.664 284.481 139.777 284.531 138.764C284.633 137.7 284.759 136.332 284.911 134.66C285.063 132.988 285.241 130.936 285.443 128.504C285.697 126.072 285.95 123.057 286.203 119.46H282.175C281.77 119.46 281.517 119.384 281.415 119.232C281.365 119.029 281.339 118.751 281.339 118.396L281.567 114.52C281.618 113.861 281.694 113.228 281.795 112.62C281.947 111.961 282.201 111.379 282.555 110.872C282.961 110.365 283.518 109.96 284.227 109.656C284.937 109.352 285.874 109.2 287.039 109.2C287.394 108.288 287.799 107.199 288.255 105.932C288.711 104.665 289.167 103.449 289.623 102.284C290.079 101.068 290.51 100.055 290.915 99.244C291.371 98.4333 291.777 98.028 292.131 98.028H294.335C296.463 98.028 297.933 98.6867 298.743 100.004C299.554 101.321 299.959 102.892 299.959 104.716C299.959 105.729 299.883 107.224 299.731 109.2H307.711C308.522 109.2 308.927 109.555 308.927 110.264L308.623 114.368C308.522 115.888 308.091 117.129 307.331 118.092C306.622 119.004 305.127 119.46 302.847 119.46H298.819ZM327.351 115.66C327.351 116.724 327.249 118.219 327.047 120.144C326.895 122.069 326.717 124.071 326.515 126.148C326.363 128.225 326.185 130.176 325.983 132C325.831 133.824 325.755 135.141 325.755 135.952C325.755 137.725 326.185 139.119 327.047 140.132C327.959 141.095 329.2 141.576 330.771 141.576C332.139 141.576 333.279 141.044 334.191 139.98C335.153 138.865 335.913 137.447 336.471 135.724C337.079 133.951 337.56 131.949 337.915 129.72C338.269 127.491 338.523 125.236 338.675 122.956C338.877 120.676 339.029 118.472 339.131 116.344C339.283 114.165 339.435 112.291 339.587 110.72C339.637 110.315 339.789 109.96 340.043 109.656C340.296 109.352 340.701 109.2 341.259 109.2H343.995C345.565 109.2 346.832 109.377 347.795 109.732C348.808 110.036 349.593 110.492 350.151 111.1C350.759 111.708 351.164 112.468 351.367 113.38C351.62 114.241 351.747 115.255 351.747 116.42C351.747 117.18 351.696 118.269 351.595 119.688C351.544 121.056 351.417 122.981 351.215 125.464C351.012 127.896 350.759 131.012 350.455 134.812C350.201 138.561 349.872 143.223 349.467 148.796C349.365 149.86 349.239 150.493 349.087 150.696C348.985 150.899 348.58 151 347.871 151H344.907C343.387 151 342.12 150.823 341.107 150.468C340.144 150.113 339.359 149.657 338.751 149.1C338.143 148.543 337.712 147.884 337.459 147.124C337.205 146.364 337.053 145.579 337.003 144.768C336.243 146.085 335.381 147.2 334.419 148.112C333.507 149.024 332.544 149.759 331.531 150.316C330.517 150.823 329.479 151.177 328.415 151.38C327.351 151.633 326.312 151.76 325.299 151.76C323.373 151.76 321.651 151.456 320.131 150.848C318.611 150.189 317.319 149.328 316.255 148.264C315.241 147.2 314.456 145.933 313.899 144.464C313.341 142.995 313.063 141.424 313.063 139.752C313.063 139.093 313.088 138.029 313.139 136.56C313.24 135.04 313.341 133.343 313.443 131.468C313.595 129.593 313.747 127.617 313.899 125.54C314.051 123.412 314.177 121.411 314.279 119.536C314.431 117.661 314.557 116.015 314.659 114.596C314.811 113.177 314.912 112.164 314.963 111.556C315.064 110.644 315.267 110.036 315.571 109.732C315.875 109.377 316.381 109.2 317.091 109.2H319.523C321.093 109.2 322.385 109.352 323.399 109.656C324.412 109.96 325.197 110.391 325.755 110.948C326.363 111.505 326.768 112.189 326.971 113C327.224 113.76 327.351 114.647 327.351 115.66ZM382.953 127.364C382.649 127.364 382.294 127.364 381.889 127.364C381.534 127.313 381.18 127.263 380.825 127.212C380.47 127.111 380.166 127.009 379.913 126.908C379.66 126.756 379.533 126.579 379.533 126.376C379.533 125.717 379.558 125.109 379.609 124.552C379.66 123.995 379.685 123.412 379.685 122.804C379.685 121.689 379.533 120.777 379.229 120.068C378.925 119.359 378.317 119.004 377.405 119.004C375.986 119.004 374.796 119.941 373.833 121.816C372.921 123.64 372.338 126.401 372.085 130.1C371.984 131.721 371.832 133.571 371.629 135.648C371.477 137.675 371.325 139.651 371.173 141.576C371.021 143.451 370.894 145.123 370.793 146.592C370.692 148.061 370.641 149.024 370.641 149.48C370.641 149.987 370.464 150.367 370.109 150.62C369.754 150.873 369.374 151 368.969 151H366.233C364.662 151 363.37 150.848 362.357 150.544C361.394 150.189 360.609 149.708 360.001 149.1C359.444 148.492 359.038 147.757 358.785 146.896C358.582 145.984 358.481 144.945 358.481 143.78C358.481 143.02 358.506 141.956 358.557 140.588C358.658 139.169 358.81 137.244 359.013 134.812C359.216 132.329 359.444 129.213 359.697 125.464C360.001 121.664 360.356 116.977 360.761 111.404C360.862 109.935 361.394 109.2 362.357 109.2H365.321C366.74 109.2 367.93 109.352 368.893 109.656C369.856 109.96 370.641 110.391 371.249 110.948C371.857 111.455 372.288 112.063 372.541 112.772C372.845 113.481 373.048 114.216 373.149 114.976C373.757 113.811 374.466 112.823 375.277 112.012C376.138 111.151 377.025 110.467 377.937 109.96C378.849 109.403 379.786 109.023 380.749 108.82C381.712 108.567 382.598 108.44 383.409 108.44C384.372 108.44 385.334 108.617 386.297 108.972C387.31 109.327 388.222 109.859 389.033 110.568C389.844 111.277 390.477 112.189 390.933 113.304C391.44 114.419 391.693 115.736 391.693 117.256C391.693 118.624 391.49 119.916 391.085 121.132C390.68 122.348 390.097 123.437 389.337 124.4C388.577 125.312 387.64 126.047 386.525 126.604C385.461 127.111 384.27 127.364 382.953 127.364ZM392.195 141.652C392.195 137.092 394.247 133.52 398.351 130.936C402.455 128.352 408.51 126.959 416.515 126.756C416.566 126.199 416.591 125.743 416.591 125.388C416.642 124.983 416.667 124.501 416.667 123.944C416.667 122.323 416.363 121.031 415.755 120.068C415.147 119.105 413.881 118.624 411.955 118.624C410.891 118.624 410.03 118.776 409.371 119.08C408.713 119.384 408.181 119.815 407.775 120.372C407.37 120.879 407.041 121.512 406.787 122.272C406.534 123.032 406.306 123.868 406.103 124.78C406.002 125.236 405.774 125.54 405.419 125.692C405.065 125.793 404.507 125.844 403.747 125.844C398.579 125.844 395.995 123.893 395.995 119.992C395.995 118.421 396.35 116.927 397.059 115.508C397.819 114.089 398.909 112.873 400.327 111.86C401.797 110.796 403.621 109.96 405.799 109.352C407.978 108.744 410.511 108.44 413.399 108.44C419.023 108.44 423.102 109.605 425.635 111.936C428.169 114.267 429.435 117.56 429.435 121.816C429.435 122.373 429.359 123.387 429.207 124.856C429.106 126.275 428.954 127.795 428.751 129.416C428.599 130.987 428.447 132.481 428.295 133.9C428.194 135.319 428.143 136.307 428.143 136.864C428.143 138.131 428.371 139.043 428.827 139.6C429.283 140.107 429.79 140.461 430.347 140.664C430.955 140.867 431.487 141.019 431.943 141.12C432.399 141.221 432.627 141.475 432.627 141.88C432.627 142.995 432.475 144.135 432.171 145.3C431.867 146.465 431.361 147.529 430.651 148.492C429.993 149.455 429.055 150.24 427.839 150.848C426.674 151.456 425.23 151.76 423.507 151.76C421.075 151.76 419.251 151.177 418.035 150.012C416.819 148.847 416.009 147.225 415.603 145.148C414.387 146.921 412.791 148.467 410.815 149.784C408.89 151.101 406.357 151.76 403.215 151.76C401.695 151.76 400.251 151.583 398.883 151.228C397.566 150.873 396.401 150.291 395.387 149.48C394.425 148.669 393.639 147.631 393.031 146.364C392.474 145.047 392.195 143.476 392.195 141.652ZM415.831 132.988C414.514 132.988 413.222 133.089 411.955 133.292C410.689 133.495 409.549 133.824 408.535 134.28C407.573 134.685 406.787 135.243 406.179 135.952C405.571 136.661 405.267 137.523 405.267 138.536C405.267 139.701 405.622 140.512 406.331 140.968C407.091 141.424 407.902 141.652 408.763 141.652C409.574 141.652 410.385 141.475 411.195 141.12C412.006 140.765 412.715 140.233 413.323 139.524C413.982 138.764 414.539 137.852 414.995 136.788C415.451 135.724 415.73 134.457 415.831 132.988ZM446.116 151.684C442.974 151.684 440.72 150.848 439.352 149.176C437.984 147.504 437.3 144.743 437.3 140.892C437.3 140.284 437.325 139.524 437.376 138.612C437.477 137.7 437.578 136.535 437.68 135.116C437.832 133.647 438.009 131.848 438.212 129.72C438.414 127.592 438.617 125.008 438.82 121.968C439.073 118.928 439.326 115.356 439.58 111.252C439.884 107.148 440.188 102.385 440.492 96.964C440.542 95.8493 440.669 95.1907 440.872 94.988C441.024 94.836 441.429 94.76 442.088 94.76H445.052C446.572 94.76 447.838 94.9373 448.852 95.292C449.865 95.6467 450.676 96.128 451.284 96.736C451.892 97.344 452.322 98.0533 452.576 98.864C452.829 99.624 452.956 100.435 452.956 101.296C452.956 102.309 452.88 103.779 452.728 105.704C452.626 107.579 452.474 109.707 452.272 112.088C452.069 114.469 451.866 116.952 451.664 119.536C451.461 122.12 451.258 124.603 451.056 126.984C450.853 129.315 450.676 131.417 450.524 133.292C450.422 135.167 450.372 136.585 450.372 137.548C450.372 138.865 450.6 139.803 451.056 140.36C451.562 140.917 452.094 141.323 452.652 141.576C453.209 141.779 453.716 141.931 454.172 142.032C454.678 142.083 454.932 142.235 454.932 142.488C454.932 143.603 454.805 144.717 454.552 145.832C454.298 146.896 453.842 147.884 453.184 148.796C452.525 149.657 451.613 150.367 450.448 150.924C449.333 151.431 447.889 151.684 446.116 151.684ZM9.78 244C6.892 244 4.84 243.443 3.624 242.328C2.45867 241.163 1.876 239.465 1.876 237.236C1.876 236.577 1.90133 235.539 1.952 234.12C2.05333 232.651 2.18 230.928 2.332 228.952C2.484 226.976 2.636 224.823 2.788 222.492C2.99067 220.161 3.19333 217.78 3.396 215.348C3.64933 212.359 3.852 209.8 4.004 207.672C4.20667 205.493 4.35867 203.644 4.46 202.124C4.56133 200.553 4.63733 199.261 4.688 198.248C4.78933 197.184 4.84 196.272 4.84 195.512C4.89067 194.701 4.916 193.967 4.916 193.308C4.96667 192.649 4.992 191.94 4.992 191.18C4.992 190.775 5.11867 190.496 5.372 190.344C5.62533 190.141 5.87867 190.04 6.132 190.04C7.44933 190.04 8.89333 190.015 10.464 189.964C12.0347 189.863 13.6053 189.761 15.176 189.66C16.7467 189.559 18.2667 189.483 19.736 189.432C21.2053 189.331 22.4973 189.28 23.612 189.28C26.8547 189.28 29.6413 189.685 31.972 190.496C34.3027 191.256 36.1773 192.396 37.596 193.916C39.0653 195.385 40.1293 197.184 40.788 199.312C41.4973 201.44 41.852 203.872 41.852 206.608C41.852 209.597 41.4467 212.485 40.636 215.272C39.876 218.008 38.66 220.44 36.988 222.568C35.316 224.696 33.1627 226.393 30.528 227.66C27.8933 228.927 24.752 229.56 21.104 229.56C18.9253 229.56 17.076 229.332 15.556 228.876L14.492 242.86C14.4413 243.265 14.34 243.569 14.188 243.772C14.036 243.924 13.732 244 13.276 244H9.78ZM22.092 200.68C21.4333 200.68 20.6987 200.731 19.888 200.832C19.0773 200.883 18.216 200.959 17.304 201.06C17.2027 203.188 17.076 205.772 16.924 208.812C16.772 211.852 16.5693 215.044 16.316 218.388C17.076 218.591 17.8107 218.743 18.52 218.844C19.28 218.895 19.964 218.92 20.572 218.92C22.3453 218.92 23.764 218.515 24.828 217.704C25.9427 216.843 26.804 215.804 27.412 214.588C28.02 213.372 28.4253 212.105 28.628 210.788C28.8307 209.471 28.932 208.331 28.932 207.368C28.932 205.189 28.4253 203.543 27.412 202.428C26.4493 201.263 24.676 200.68 22.092 200.68ZM70.3437 220.364C70.0397 220.364 69.685 220.364 69.2797 220.364C68.925 220.313 68.5704 220.263 68.2157 220.212C67.861 220.111 67.557 220.009 67.3037 219.908C67.0504 219.756 66.9237 219.579 66.9237 219.376C66.9237 218.717 66.949 218.109 66.9997 217.552C67.0504 216.995 67.0757 216.412 67.0757 215.804C67.0757 214.689 66.9237 213.777 66.6197 213.068C66.3157 212.359 65.7077 212.004 64.7957 212.004C63.377 212.004 62.1864 212.941 61.2237 214.816C60.3117 216.64 59.729 219.401 59.4757 223.1C59.3744 224.721 59.2224 226.571 59.0197 228.648C58.8677 230.675 58.7157 232.651 58.5637 234.576C58.4117 236.451 58.285 238.123 58.1837 239.592C58.0824 241.061 58.0317 242.024 58.0317 242.48C58.0317 242.987 57.8544 243.367 57.4997 243.62C57.145 243.873 56.765 244 56.3597 244H53.6237C52.053 244 50.761 243.848 49.7477 243.544C48.785 243.189 47.9997 242.708 47.3917 242.1C46.8344 241.492 46.429 240.757 46.1757 239.896C45.973 238.984 45.8717 237.945 45.8717 236.78C45.8717 236.02 45.897 234.956 45.9477 233.588C46.049 232.169 46.201 230.244 46.4037 227.812C46.6064 225.329 46.8344 222.213 47.0877 218.464C47.3917 214.664 47.7464 209.977 48.1517 204.404C48.253 202.935 48.785 202.2 49.7477 202.2H52.7117C54.1304 202.2 55.321 202.352 56.2837 202.656C57.2464 202.96 58.0317 203.391 58.6397 203.948C59.2477 204.455 59.6784 205.063 59.9317 205.772C60.2357 206.481 60.4384 207.216 60.5397 207.976C61.1477 206.811 61.857 205.823 62.6677 205.012C63.529 204.151 64.4157 203.467 65.3277 202.96C66.2397 202.403 67.177 202.023 68.1397 201.82C69.1024 201.567 69.989 201.44 70.7997 201.44C71.7624 201.44 72.725 201.617 73.6877 201.972C74.701 202.327 75.613 202.859 76.4237 203.568C77.2344 204.277 77.8677 205.189 78.3237 206.304C78.8304 207.419 79.0837 208.736 79.0837 210.256C79.0837 211.624 78.881 212.916 78.4757 214.132C78.0704 215.348 77.4877 216.437 76.7277 217.4C75.9677 218.312 75.0304 219.047 73.9157 219.604C72.8517 220.111 71.661 220.364 70.3437 220.364ZM99.1869 244.76C95.6909 244.76 92.7775 244.279 90.4469 243.316C88.1669 242.303 86.3429 240.935 84.9749 239.212C83.6069 237.489 82.6442 235.488 82.0869 233.208C81.5295 230.877 81.2509 228.395 81.2509 225.76C81.2509 222.72 81.6055 219.756 82.3149 216.868C83.0749 213.929 84.3415 211.32 86.1149 209.04C87.8882 206.76 90.2189 204.936 93.1069 203.568C96.0455 202.149 99.6935 201.44 104.051 201.44C110.435 201.44 114.995 203.011 117.731 206.152C120.518 209.243 121.911 213.6 121.911 219.224C121.911 220.795 121.784 222.543 121.531 224.468C121.328 226.343 120.898 228.217 120.239 230.092C119.631 231.967 118.77 233.791 117.655 235.564C116.591 237.337 115.223 238.908 113.551 240.276C111.879 241.644 109.852 242.733 107.471 243.544C105.14 244.355 102.379 244.76 99.1869 244.76ZM102.759 211.548C100.834 211.548 99.2882 212.055 98.1229 213.068C97.0082 214.031 96.1469 215.221 95.5389 216.64C94.9815 218.008 94.6015 219.477 94.3989 221.048C94.2469 222.568 94.1709 223.86 94.1709 224.924C94.1709 228.268 94.7029 230.725 95.7669 232.296C96.8309 233.867 98.3509 234.652 100.327 234.652C102.1 234.652 103.544 234.095 104.659 232.98C105.824 231.865 106.711 230.523 107.319 228.952C107.978 227.381 108.408 225.735 108.611 224.012C108.864 222.289 108.991 220.845 108.991 219.68C108.991 217.147 108.51 215.171 107.547 213.752C106.635 212.283 105.039 211.548 102.759 211.548ZM141.493 244.76C139.517 244.76 137.617 244.405 135.793 243.696C134.019 242.987 132.449 241.872 131.081 240.352C129.763 238.832 128.699 236.907 127.889 234.576C127.129 232.245 126.749 229.433 126.749 226.14C126.749 224.671 126.85 223.049 127.053 221.276C127.255 219.452 127.61 217.628 128.117 215.804C128.623 213.98 129.333 212.207 130.245 210.484C131.157 208.761 132.297 207.241 133.665 205.924C135.083 204.556 136.755 203.467 138.681 202.656C140.657 201.845 142.962 201.44 145.597 201.44C148.13 201.44 150.157 201.896 151.677 202.808C153.247 203.669 154.235 205.189 154.641 207.368C154.742 205.392 154.843 203.669 154.945 202.2C155.046 200.731 155.122 199.363 155.173 198.096C155.274 196.829 155.375 195.563 155.477 194.296C155.578 193.029 155.679 191.585 155.781 189.964C155.831 188.849 155.958 188.191 156.161 187.988C156.262 187.887 156.389 187.836 156.541 187.836C156.693 187.785 156.971 187.76 157.377 187.76H160.341C161.861 187.76 163.127 187.937 164.141 188.292C165.154 188.647 165.965 189.128 166.573 189.736C167.181 190.344 167.611 191.053 167.865 191.864C168.118 192.624 168.245 193.435 168.245 194.296C168.245 194.296 168.194 194.929 168.093 196.196C167.991 197.463 167.865 199.16 167.713 201.288C167.561 203.365 167.383 205.747 167.181 208.432C166.978 211.117 166.775 213.904 166.573 216.792C166.37 219.629 166.167 222.467 165.965 225.304C165.762 228.091 165.559 230.675 165.357 233.056C165.154 235.387 164.977 237.413 164.825 239.136C164.723 240.808 164.647 241.923 164.597 242.48C164.495 243.088 164.369 243.493 164.217 243.696C164.065 243.899 163.634 244 162.925 244H160.189C159.125 244 158.111 243.924 157.149 243.772C156.237 243.569 155.426 243.265 154.717 242.86C154.058 242.404 153.526 241.821 153.121 241.112C152.766 240.352 152.589 239.389 152.589 238.224C151.677 240.149 150.283 241.72 148.409 242.936C146.585 244.152 144.279 244.76 141.493 244.76ZM148.105 211.548C145.521 211.548 143.595 212.688 142.329 214.968C141.113 217.197 140.505 220.212 140.505 224.012C140.505 225.329 140.581 226.621 140.733 227.888C140.935 229.155 141.265 230.295 141.721 231.308C142.177 232.321 142.785 233.132 143.545 233.74C144.355 234.348 145.369 234.652 146.585 234.652C148.763 234.652 150.587 233.588 152.057 231.46C153.526 229.332 154.261 225.988 154.261 221.428C154.261 220.161 154.185 218.945 154.033 217.78C153.881 216.564 153.577 215.5 153.121 214.588C152.665 213.676 152.031 212.941 151.221 212.384C150.41 211.827 149.371 211.548 148.105 211.548ZM188.339 208.66C188.339 209.724 188.238 211.219 188.035 213.144C187.883 215.069 187.706 217.071 187.503 219.148C187.351 221.225 187.174 223.176 186.971 225C186.819 226.824 186.743 228.141 186.743 228.952C186.743 230.725 187.174 232.119 188.035 233.132C188.947 234.095 190.188 234.576 191.759 234.576C193.127 234.576 194.267 234.044 195.179 232.98C196.142 231.865 196.902 230.447 197.459 228.724C198.067 226.951 198.548 224.949 198.903 222.72C199.258 220.491 199.511 218.236 199.663 215.956C199.866 213.676 200.018 211.472 200.119 209.344C200.271 207.165 200.423 205.291 200.575 203.72C200.626 203.315 200.778 202.96 201.031 202.656C201.284 202.352 201.69 202.2 202.247 202.2H204.983C206.554 202.2 207.82 202.377 208.783 202.732C209.796 203.036 210.582 203.492 211.139 204.1C211.747 204.708 212.152 205.468 212.355 206.38C212.608 207.241 212.735 208.255 212.735 209.42C212.735 210.18 212.684 211.269 212.583 212.688C212.532 214.056 212.406 215.981 212.203 218.464C212 220.896 211.747 224.012 211.443 227.812C211.19 231.561 210.86 236.223 210.455 241.796C210.354 242.86 210.227 243.493 210.075 243.696C209.974 243.899 209.568 244 208.859 244H205.895C204.375 244 203.108 243.823 202.095 243.468C201.132 243.113 200.347 242.657 199.739 242.1C199.131 241.543 198.7 240.884 198.447 240.124C198.194 239.364 198.042 238.579 197.991 237.768C197.231 239.085 196.37 240.2 195.407 241.112C194.495 242.024 193.532 242.759 192.519 243.316C191.506 243.823 190.467 244.177 189.403 244.38C188.339 244.633 187.3 244.76 186.287 244.76C184.362 244.76 182.639 244.456 181.119 243.848C179.599 243.189 178.307 242.328 177.243 241.264C176.23 240.2 175.444 238.933 174.887 237.464C174.33 235.995 174.051 234.424 174.051 232.752C174.051 232.093 174.076 231.029 174.127 229.56C174.228 228.04 174.33 226.343 174.431 224.468C174.583 222.593 174.735 220.617 174.887 218.54C175.039 216.412 175.166 214.411 175.267 212.536C175.419 210.661 175.546 209.015 175.647 207.596C175.799 206.177 175.9 205.164 175.951 204.556C176.052 203.644 176.255 203.036 176.559 202.732C176.863 202.377 177.37 202.2 178.079 202.2H180.511C182.082 202.2 183.374 202.352 184.387 202.656C185.4 202.96 186.186 203.391 186.743 203.948C187.351 204.505 187.756 205.189 187.959 206C188.212 206.76 188.339 207.647 188.339 208.66ZM238.545 234.652C240.015 234.652 241.281 234.449 242.345 234.044C243.46 233.639 244.423 233.183 245.233 232.676C246.044 232.169 246.728 231.713 247.285 231.308C247.843 230.903 248.349 230.7 248.805 230.7C249.971 230.7 250.553 231.46 250.553 232.98C250.553 233.335 250.477 233.841 250.325 234.5C250.173 235.108 249.971 235.767 249.717 236.476C249.464 237.135 249.185 237.768 248.881 238.376C248.628 238.984 248.375 239.44 248.121 239.744C247.868 239.997 247.412 240.403 246.753 240.96C246.145 241.517 245.309 242.075 244.245 242.632C243.181 243.189 241.94 243.671 240.521 244.076C239.103 244.532 237.532 244.76 235.809 244.76C233.884 244.76 231.883 244.481 229.805 243.924C227.779 243.316 225.929 242.303 224.257 240.884C222.585 239.415 221.192 237.464 220.077 235.032C219.013 232.549 218.481 229.459 218.481 225.76C218.481 224.443 218.557 222.948 218.709 221.276C218.912 219.553 219.292 217.805 219.849 216.032C220.407 214.208 221.141 212.435 222.053 210.712C223.016 208.939 224.283 207.368 225.853 206C227.424 204.632 229.299 203.543 231.477 202.732C233.707 201.871 236.341 201.44 239.381 201.44C241.864 201.44 243.992 201.744 245.765 202.352C247.589 202.909 249.084 203.695 250.249 204.708C251.415 205.671 252.276 206.811 252.833 208.128C253.441 209.445 253.745 210.864 253.745 212.384C253.745 215.12 252.884 217.147 251.161 218.464C249.439 219.731 247.007 220.364 243.865 220.364C243.105 220.364 242.573 220.313 242.269 220.212C242.016 220.06 241.889 219.756 241.889 219.3C241.889 218.084 241.864 216.995 241.813 216.032C241.763 215.069 241.611 214.259 241.357 213.6C241.155 212.941 240.825 212.435 240.369 212.08C239.913 211.725 239.255 211.548 238.393 211.548C236.823 211.548 235.556 212.055 234.593 213.068C233.681 214.081 232.972 215.323 232.465 216.792C232.009 218.211 231.705 219.68 231.553 221.2C231.452 222.72 231.401 223.987 231.401 225C231.401 228.597 231.959 231.105 233.073 232.524C234.239 233.943 236.063 234.652 238.545 234.652ZM274.327 212.46C274.175 214.385 273.998 216.285 273.795 218.16C273.643 220.035 273.491 221.808 273.339 223.48C273.187 225.152 273.06 226.647 272.959 227.964C272.908 229.281 272.883 230.295 272.883 231.004C272.883 232.321 273.035 233.208 273.339 233.664C273.643 234.069 274.15 234.272 274.859 234.272C275.416 234.272 275.898 234.171 276.303 233.968C276.708 233.765 277.088 233.537 277.443 233.284C277.798 233.031 278.102 232.803 278.355 232.6C278.659 232.397 278.988 232.296 279.343 232.296C279.698 232.296 280.027 232.499 280.331 232.904C280.635 233.309 280.787 234.247 280.787 235.716C280.787 238.503 280.027 240.707 278.507 242.328C276.987 243.949 274.378 244.76 270.679 244.76C267.031 244.76 264.32 243.924 262.547 242.252C260.824 240.529 259.963 237.92 259.963 234.424C259.963 233.664 259.988 232.777 260.039 231.764C260.14 230.7 260.267 229.332 260.419 227.66C260.571 225.988 260.748 223.936 260.951 221.504C261.204 219.072 261.458 216.057 261.711 212.46H257.683C257.278 212.46 257.024 212.384 256.923 212.232C256.872 212.029 256.847 211.751 256.847 211.396L257.075 207.52C257.126 206.861 257.202 206.228 257.303 205.62C257.455 204.961 257.708 204.379 258.063 203.872C258.468 203.365 259.026 202.96 259.735 202.656C260.444 202.352 261.382 202.2 262.547 202.2C262.902 201.288 263.307 200.199 263.763 198.932C264.219 197.665 264.675 196.449 265.131 195.284C265.587 194.068 266.018 193.055 266.423 192.244C266.879 191.433 267.284 191.028 267.639 191.028H269.843C271.971 191.028 273.44 191.687 274.251 193.004C275.062 194.321 275.467 195.892 275.467 197.716C275.467 198.729 275.391 200.224 275.239 202.2H283.219C284.03 202.2 284.435 202.555 284.435 203.264L284.131 207.368C284.03 208.888 283.599 210.129 282.839 211.092C282.13 212.004 280.635 212.46 278.355 212.46H274.327ZM306.051 201.44C310.357 201.44 313.524 202.301 315.551 204.024C317.577 205.696 318.591 207.849 318.591 210.484C318.591 212.713 317.881 214.411 316.463 215.576C315.095 216.741 313.093 217.324 310.459 217.324C309.749 217.324 309.268 217.248 309.015 217.096C308.761 216.944 308.635 216.665 308.635 216.26C308.635 215.804 308.584 215.297 308.483 214.74C308.432 214.132 308.255 213.575 307.951 213.068C307.697 212.511 307.267 212.055 306.659 211.7C306.101 211.345 305.291 211.168 304.227 211.168C302.808 211.168 301.668 211.523 300.807 212.232C299.945 212.891 299.515 213.727 299.515 214.74C299.515 215.804 299.945 216.665 300.807 217.324C301.719 217.932 302.833 218.515 304.151 219.072C305.519 219.629 306.988 220.212 308.559 220.82C310.129 221.377 311.573 222.137 312.891 223.1C314.259 224.063 315.373 225.279 316.235 226.748C317.147 228.167 317.603 230.016 317.603 232.296C317.603 235.944 316.311 238.933 313.727 241.264C311.143 243.595 307.267 244.76 302.099 244.76C300.68 244.76 299.033 244.633 297.159 244.38C295.335 244.177 293.587 243.848 291.915 243.392C290.243 242.885 288.824 242.227 287.659 241.416C286.544 240.605 285.987 239.592 285.987 238.376C285.987 237.92 286.063 237.363 286.215 236.704C286.417 236.045 286.696 235.412 287.051 234.804C287.456 234.196 287.912 233.689 288.419 233.284C288.976 232.828 289.635 232.6 290.395 232.6C291.003 232.6 291.56 232.752 292.067 233.056C292.573 233.36 293.156 233.689 293.815 234.044C294.524 234.348 295.385 234.652 296.399 234.956C297.412 235.26 298.755 235.412 300.427 235.412C301.693 235.412 302.808 235.26 303.771 234.956C304.784 234.652 305.291 233.968 305.291 232.904C305.291 231.941 304.885 231.181 304.075 230.624C303.264 230.016 302.225 229.459 300.959 228.952C299.743 228.445 298.4 227.913 296.931 227.356C295.512 226.748 294.169 225.963 292.903 225C291.687 224.037 290.673 222.821 289.863 221.352C289.052 219.832 288.647 217.881 288.647 215.5C288.647 212.916 289.153 210.737 290.167 208.964C291.231 207.14 292.573 205.671 294.195 204.556C295.867 203.441 297.741 202.656 299.819 202.2C301.896 201.693 303.973 201.44 306.051 201.44Z" fill="#514245"/>
</svg>
