<svg width="28" height="22" viewBox="0 0 28 22" fill="none" xmlns="http://www.w3.org/2000/svg">
<path d="M12.4444 4.71429C12.4444 5.96459 11.9528 7.16369 11.0776 8.04779C10.2024 8.93189 9.01546 9.42857 7.77778 9.42857C6.5401 9.42857 5.35312 8.93189 4.47795 8.04779C3.60278 7.16369 3.11111 5.96459 3.11111 4.71429C3.11111 3.46398 3.60278 2.26488 4.47795 1.38078C5.35312 0.496682 6.5401 0 7.77778 0C9.01546 0 10.2024 0.496682 11.0776 1.38078C11.9528 2.26488 12.4444 3.46398 12.4444 4.71429ZM24.8889 4.71429C24.8889 5.33337 24.7682 5.9464 24.5337 6.51836C24.2991 7.09033 23.9554 7.61003 23.5221 8.04779C23.0887 8.48555 22.5743 8.8328 22.0081 9.06972C21.4419 9.30663 20.8351 9.42857 20.2222 9.42857C19.6094 9.42857 19.0026 9.30663 18.4364 9.06972C17.8702 8.8328 17.3557 8.48555 16.9224 8.04779C16.489 7.61003 16.1453 7.09033 15.9108 6.51836C15.6763 5.9464 15.5556 5.33337 15.5556 4.71429C15.5556 3.46398 16.0472 2.26488 16.9224 1.38078C17.7976 0.496682 18.9845 0 20.2222 0C21.4599 0 22.6469 0.496682 23.5221 1.38078C24.3972 2.26488 24.8889 3.46398 24.8889 4.71429ZM18.5578 22C18.6293 21.4861 18.6667 20.9629 18.6667 20.4286C18.6703 17.9596 17.848 15.5619 16.3333 13.6243C17.5157 12.9347 18.8569 12.5716 20.2222 12.5716C21.5874 12.5716 22.9287 12.9347 24.111 13.6242C25.2934 14.3138 26.2752 15.3057 26.9579 16.5001C27.6406 17.6945 28 19.0494 28 20.4286V22H18.5578ZM7.77778 12.5714C9.84057 12.5714 11.8189 13.3992 13.2775 14.8727C14.7361 16.3462 15.5556 18.3447 15.5556 20.4286V22H0V20.4286C0 18.3447 0.819442 16.3462 2.27806 14.8727C3.73667 13.3992 5.71498 12.5714 7.77778 12.5714Z" fill="black"/>
</svg>
