<!DOCTYPE svg PUBLIC "-//W3C//DTD SVG 20010904//EN" "http://www.w3.org/TR/2001/REC-SVG-20010904/DTD/svg10.dtd">
<svg version="1.0" xmlns="http://www.w3.org/2000/svg" width="70px" height="70px" viewBox="0 0 70 70" preserveAspectRatio="xMidYMid meet">
 <g id="layer101" fill="#f0c8b2" stroke="none">
  <path d="M32.0833 68.81 c-5.7867 -0.3733 -11.55 -2.38 -16.8 -5.8333 -2.45 -1.61 -7.35 -6.51 -8.96 -8.96 -1.5633 -2.38 -3.5467 -6.4633 -4.34 -8.8667 -2.17 -6.8133 -2.17 -14.42 0 -21.2333 0.7933 -2.4033 2.7767 -6.4867 4.34 -8.8667 1.61 -2.45 6.51 -7.35 8.96 -8.96 6.0667 -3.99 12.46 -5.95 19.4833 -5.95 5.6233 0 10.0333 1.0267 15.05 3.4767 3.92 1.9133 5.9733 3.4067 9.2167 6.65 3.2433 3.2433 4.7367 5.2967 6.65 9.2167 2.45 4.9933 3.4767 9.4267 3.4533 14.9333 0 12.5067 -6.3233 23.4733 -17.15 29.89 -5.81 3.43 -12.6467 4.97 -19.9033 4.5033z m9.31 -2.66 c6.23 -1.4 11.7367 -4.4333 16.1467 -8.8433 4.3633 -4.3633 7.0933 -9.2633 8.68 -15.54 0.5833 -2.2633 0.63 -2.8233 0.63 -7.2333 0 -4.41 -0.0467 -4.97 -0.63 -7.2333 -1.5867 -6.2767 -4.3167 -11.1767 -8.68 -15.54 -4.8067 -4.8067 -10.9433 -7.98 -17.5933 -9.0767 -2.9633 -0.49 -9.2167 -0.3733 -11.9467 0.2333 -5.9033 1.3067 -11.2467 4.1767 -15.5633 8.3533 -4.5967 4.4567 -7.5367 9.5433 -9.1 15.7267 -0.6067 2.3567 -0.6533 2.8467 -0.6533 7.42 0 4.5267 0.0467 5.0867 0.63 7.35 0.77 3.1033 1.5167 5.04 2.8933 7.7467 2.94 5.67 8.0267 10.71 13.8367 13.6967 2.7067 1.3767 6.3467 2.6367 8.89 3.0567 0.9567 0.14 1.9133 0.3033 2.1 0.35 0.9567 0.2333 8.89 -0.1167 10.36 -0.4667z"/>
  <path d="M39.4333 58.1933 c-1.7733 -0.63 -2.0533 -1.2133 -2.1233 -4.2 l-0.0467 -2.31 6.93 -0.07 6.9067 -0.0467 0 2.1233 c0 2.38 -0.35 3.4067 -1.3533 4.1067 -0.56 0.3733 -1.2367 0.42 -5.2967 0.4667 -2.5667 0.0233 -4.83 0 -5.0167 -0.07z"/>
  <path d="M14.7933 49.28 c-0.14 -0.0933 -0.63 -0.77 -1.12 -1.4933 -0.5367 -0.8167 -1.05 -1.3533 -1.3067 -1.3533 -0.2333 0 -1.0733 0.21 -1.8667 0.4433 l-1.4467 0.4667 0.1167 -0.6533 c0.1633 -0.7933 2.17 -6.3 2.4967 -6.79 0.1167 -0.1867 0.28 -0.2567 0.3967 -0.1633 0.0933 0.1167 -0.28 1.54 -0.8633 3.1967 -0.5833 1.6567 -0.98 3.0567 -0.91 3.15 0.0933 0.07 0.3967 0.0233 0.7 -0.0933 0.4433 -0.1633 0.7233 -0.6533 1.2367 -2.1467 0.3733 -1.0733 0.7 -2.0067 0.7467 -2.03 0.0233 -0.0467 0.4433 0.0467 0.8867 0.21 0.7233 0.2567 0.9567 0.2567 1.68 -0.1167 0.8633 -0.3967 0.8867 -0.3967 1.4467 0.1633 l0.56 0.56 -1.2133 3.36 c-0.6767 1.8433 -1.2367 3.3833 -1.26 3.4067 -0.0233 0.0233 -0.14 -0.0233 -0.28 -0.1167z"/>
  <path d="M22.05 49.1867 c-0.0467 -0.1633 -0.5833 -1.6567 -1.1667 -3.29 -1.0033 -2.7767 -1.1433 -3.6633 -0.63 -3.6633 0.1167 0 0.3267 0.42 0.49 0.9567 0.1633 0.5133 0.6067 1.7967 1.0033 2.8 0.5833 1.54 0.77 1.82 1.0267 1.5867 0.4667 -0.3967 0.42 -0.9567 -0.3733 -3.1733 -0.3733 -1.0733 -0.7 -2.0533 -0.7 -2.17 0 -0.0933 0.42 -0.14 0.91 -0.07 0.77 0.1167 1.0267 0.0233 1.5167 -0.49 0.35 -0.3267 0.6767 -0.91 0.7467 -1.3067 0.1633 -0.7233 0.28 -0.8167 0.7 -0.5133 0.2333 0.1633 2.66 6.7667 2.66 7.2333 0 0.1633 -0.6533 0.07 -1.6333 -0.21 -0.8867 -0.2333 -1.75 -0.4433 -1.9133 -0.4433 -0.1633 0 -0.7 0.63 -1.2133 1.4 -1.0033 1.5633 -1.26 1.82 -1.4233 1.3533z"/>
  <path d="M37.0067 47.4367 c-0.0933 -0.7467 -0.42 -4.48 -0.7233 -8.33 -0.3267 -3.8267 -0.7933 -9.3333 -1.05 -12.25 -0.2567 -2.8933 -0.4667 -5.6233 -0.4667 -6.02 l0 -0.77 9.4733 0 9.4733 0 -0.14 1.7033 c-0.07 0.91 -0.42 4.83 -0.7233 8.68 -0.3267 3.85 -0.8167 9.3567 -1.05 12.2033 -0.2567 2.87 -0.4667 5.4133 -0.4667 5.67 0 0.42 -0.2567 0.4433 -7.0933 0.4433 l-7.0933 0 -0.14 -1.33z"/>
  <path d="M17.43 40.25 l-0.8633 -0.8167 -0.9567 0.49 c-1.1667 0.5833 -1.5167 0.49 -1.7033 -0.56 -0.21 -1.0733 -0.5133 -1.2833 -2.0067 -1.3767 l-1.26 -0.07 0.07 -1.2367 0.07 -1.2367 -1.19 -0.5133 c-1.2833 -0.5367 -1.3533 -0.6767 -0.84 -1.5633 0.5367 -0.91 0.42 -1.4233 -0.5133 -2.4033 l-0.8867 -0.91 0.8867 -0.7233 c0.9567 -0.84 1.0967 -1.47 0.49 -2.4967 -0.5133 -0.8633 -0.3033 -1.3067 0.6767 -1.4933 1.0967 -0.21 1.3767 -0.6067 1.3067 -1.9367 l-0.07 -1.12 1.3067 -0.07 c1.4467 -0.07 1.68 -0.2333 1.9833 -1.4467 0.2567 -0.9333 0.5833 -1.0033 2.0067 -0.3733 l0.8867 0.3967 0.7233 -0.84 c0.91 -1.0033 1.4 -1.0267 2.0533 -0.1167 0.56 0.7933 1.2833 0.91 2.3567 0.3267 0.91 -0.4667 1.2833 -0.3267 1.47 0.63 0.2333 1.1667 0.5367 1.3767 1.96 1.3767 l1.2833 0 -0.1167 1.05 c-0.1633 1.2833 0.2333 1.9133 1.3533 2.1233 1.05 0.1867 1.1667 0.5367 0.5833 1.5167 -0.6767 1.0967 -0.63 1.3067 0.5133 2.3333 l0.98 0.91 -1.0267 0.8867 -1.0033 0.8867 0.5133 1.2133 c0.3033 0.6767 0.49 1.26 0.4433 1.3067 -0.0467 0.0467 -0.56 0.21 -1.1433 0.3967 l-1.05 0.3267 -0.07 1.47 -0.07 1.4467 -1.26 0 c-1.3767 0 -1.75 0.3033 -2.0767 1.7033 -0.1867 0.7467 -0.5367 0.7933 -1.7033 0.1633 -0.9333 -0.49 -1.3767 -0.3967 -2.1233 0.5833 -0.6067 0.77 -0.9333 0.7233 -1.9833 -0.2333z m4.55 -3.1033 c3.5233 -1.7267 5.2967 -6.0667 3.92 -9.66 -0.28 -0.7467 -0.9567 -1.8433 -1.5633 -2.52 -3.7333 -4.1533 -10.15 -3.29 -12.7167 1.7033 -0.6067 1.2133 -0.84 3.8733 -0.4433 5.46 0.5833 2.2633 2.5667 4.4567 4.8533 5.32 1.4 0.5367 4.5733 0.3733 5.95 -0.3033z"/>
  <path d="M15.0033 34.5567 c0.07 -0.28 -0.07 -0.63 -0.3267 -0.8633 -0.49 -0.4433 -0.3733 -0.7933 0.2567 -0.7933 0.2567 0 0.5833 -0.2333 0.7233 -0.5133 0.2567 -0.49 0.2567 -0.49 0.6533 -0.0233 0.21 0.2567 0.5833 0.5367 0.8167 0.63 0.35 0.1167 0.3967 0.21 0.1867 0.42 -0.1633 0.1633 -0.28 0.56 -0.28 0.9333 0 0.5833 -0.0467 0.63 -0.5367 0.4433 -0.3267 -0.14 -0.7 -0.14 -0.8867 0 -0.5133 0.3267 -0.7467 0.2333 -0.6067 -0.2333z"/>
  <path d="M20.3 34.4633 c0 -0.3267 -0.1633 -0.7 -0.35 -0.8633 -0.42 -0.35 -0.2567 -0.7 0.35 -0.7 0.2567 0 0.56 -0.21 0.7233 -0.49 l0.2567 -0.49 0.3267 0.49 c0.21 0.28 0.56 0.49 0.8167 0.49 0.5367 0 0.5833 0.3033 0.0933 0.7 -0.21 0.1867 -0.3033 0.49 -0.21 0.84 0.1633 0.6067 -0.1867 0.7467 -0.8167 0.35 -0.21 -0.14 -0.5133 -0.14 -0.77 0 -0.35 0.1867 -0.42 0.14 -0.42 -0.3267z"/>
  <path d="M13.3933 29.54 c0.0933 -0.35 0 -0.6533 -0.21 -0.84 -0.4667 -0.3967 -0.4433 -0.7 0.0933 -0.7 0.2333 0 0.6067 -0.2333 0.7933 -0.5133 l0.3733 -0.5367 0.3733 0.5367 c0.21 0.28 0.6067 0.5133 0.8633 0.5133 0.4667 0 0.4667 0.0233 0.1167 0.42 -0.2333 0.2333 -0.3967 0.7 -0.3967 1.05 0 0.5833 -0.0467 0.6067 -0.63 0.3733 -0.42 -0.1633 -0.7 -0.14 -0.8633 0.0233 -0.42 0.42 -0.6533 0.2567 -0.5133 -0.3267z"/>
  <path d="M21.9333 29.5633 c0 -0.3267 -0.1633 -0.7 -0.35 -0.8633 -0.49 -0.3967 -0.4433 -0.7 0.0933 -0.7 0.2567 0 0.63 -0.2333 0.84 -0.5133 l0.3733 -0.5367 0.3733 0.5367 c0.1867 0.28 0.5833 0.5133 0.84 0.5133 0.4433 0 0.4433 0.0233 0.07 0.4433 -0.2333 0.2567 -0.35 0.6533 -0.28 1.05 0.1167 0.6767 0.07 0.7 -0.5833 0.3733 -0.3033 -0.1867 -0.5833 -0.1633 -0.91 0 -0.3967 0.21 -0.4667 0.1867 -0.4667 -0.3033z"/>
  <path d="M17.6167 26.3667 c0.07 -0.2333 -0.0233 -0.5367 -0.2333 -0.7 -0.4667 -0.3967 -0.4433 -0.7 0.0933 -0.7 0.2333 0 0.6067 -0.2333 0.8167 -0.5133 l0.3733 -0.5367 0.3733 0.5367 c0.21 0.28 0.6067 0.5133 0.8633 0.5133 0.4433 0 0.4433 0.0233 0.0933 0.42 -0.2333 0.2333 -0.3967 0.6533 -0.3967 0.91 0 0.3967 -0.1633 0.4667 -1.05 0.4667 -0.8867 0 -1.0267 -0.07 -0.9333 -0.3967z"/>
  <path d="M34.44 17.1267 c-0.3033 -0.7933 -0.14 -1.7033 0.3733 -2.0533 0.4433 -0.3267 1.75 -0.3733 9.45 -0.3733 8.75 0 8.9367 0 9.4267 0.49 0.3267 0.3267 0.4433 0.6533 0.35 0.98 -0.07 0.28 -0.14 0.7 -0.14 0.9333 0 0.3733 -0.6067 0.3967 -9.66 0.3967 -8.5867 0 -9.6833 -0.0467 -9.8 -0.3733z"/>
</g>

</svg>